<?xml version="1.0" standalone="no"?>
<!DOCTYPE svg PUBLIC "-//W3C//DTD SVG 1.1//EN" "http://www.w3.org/Graphics/SVG/1.1/DTD/svg11.dtd" >
<svg>
<metadata>
Created by FontForge 20110222 at Mon Mar  7 13:17:29 2011
 By www-data
Copyright (c) 2010 by typedepot. All rights reserved.
</metadata>
<defs>
<font id="piron" horiz-adv-x="731" >
  <font-face 
    font-family="piron"
    font-weight="400"
    font-stretch="normal"
    units-per-em="1000"
    panose-1="0 0 0 0 0 0 0 0 0 0"
    ascent="800"
    descent="-200"
    x-height="450"
    cap-height="732"
    bbox="-54 -241.146 1164.07 895.031"
    underline-thickness="50"
    underline-position="-50"
    unicode-range="U+0020-2122"
  />
    <missing-glyph />
    <glyph glyph-name="space" unicode=" " horiz-adv-x="301" 
 />
    <glyph glyph-name="yen" unicode="&#xa5;" horiz-adv-x="737" 
d="M163 669l206 -320l205 320c-37 3 -36 63 3 63h80c40 0 40 -63 0 -63h-8l-222 -347h86c20 0 31 -16 31 -32c0 -15 -11 -31 -31 -31h-113v-4c0 -41 -63 -41 -63 0v4h-113c-20 0 -30 16 -30 31c0 16 10 32 30 32h87l-223 347h-7c-41 0 -41 63 0 63h79c39 0 40 -60 3 -63v0z
M410 210h103c20 0 31 -16 31 -31c0 -16 -11 -32 -31 -32h-113v-84h8c41 0 41 -63 0 -63h-79c-40 0 -40 63 0 63h8v84h-113c-20 0 -30 16 -30 32c0 15 10 31 30 31h104c20 -17 51 -21 76 -4c2 1 4 3 6 4v0z" />
    <glyph glyph-name="parenright" unicode=")" horiz-adv-x="326" 
d="M223 616v0c70 -145 70 -355 0 -500c-34 -71 -85 -116 -142 -116c-17 0 -31 14 -31 32c0 17 14 31 31 31c31 0 62 30 86 80c62 128 62 318 0 446c-24 50 -55 80 -86 80c-17 0 -31 14 -31 31c0 18 14 31 31 31c57 0 108 -44 142 -115z" />
    <glyph glyph-name="parenleft" unicode="(" horiz-adv-x="327" 
d="M103 616c35 71 85 115 143 115c17 0 31 -13 31 -31c0 -17 -14 -31 -31 -31c-32 0 -63 -30 -87 -80c-62 -128 -62 -318 0 -446c24 -50 55 -80 87 -80c17 0 31 -14 31 -31c0 -18 -14 -32 -31 -32c-58 0 -108 45 -143 116c-70 145 -70 355 0 500v0z" />
    <glyph glyph-name="ampersand" unicode="&#x26;" horiz-adv-x="577" 
d="M385 204v132h-116c-43 0 -83 -7 -116 -40c-53 -53 -53 -139 0 -193c26 -26 61 -39 98 -39c41 0 41 -63 0 -63c-51 0 -105 21 -142 58c-78 78 -78 203 0 281c10 10 22 19 34 27c-12 8 -24 17 -34 28c-78 77 -78 203 0 280c57 58 144 74 217 43c58 -25 102 -76 116 -138
c4 -17 -7 -34 -23 -38c-17 -3 -34 7 -38 24c-9 42 -39 77 -79 94c-50 22 -110 11 -149 -29c-53 -53 -53 -139 0 -192c34 -34 73 -40 116 -40h116v42c0 20 15 31 31 31s32 -11 32 -31v-42h48c20 0 31 -16 31 -32c0 -15 -11 -31 -31 -31h-48v-127c0 -56 -19 -109 -59 -150
c-24 -23 -52 -40 -82 -49c6 18 5 39 -7 57c-1 2 -2 4 -4 5c18 7 35 17 49 31c28 28 40 63 40 101v0z" />
    <glyph glyph-name="braceright" unicode="}" horiz-adv-x="324" 
d="M274 366v0c0 -11 -7 -22 -17 -27c-55 -31 -59 -103 -63 -168c-5 -91 -9 -171 -113 -171c-17 0 -31 14 -31 32c0 17 14 31 31 31c45 0 48 52 51 111c4 68 8 142 59 192c-51 50 -55 124 -59 192c-3 59 -6 111 -51 111c-17 0 -31 14 -31 31c0 18 14 32 31 32
c104 0 108 -80 113 -171c4 -65 8 -137 63 -168c10 -5 17 -15 17 -27z" />
    <glyph glyph-name="bracketright" unicode="]" horiz-adv-x="221" 
d="M108 668v0h-27c-21 0 -31 16 -31 32s10 32 31 32h59c16 0 31 -11 31 -31v-670c0 -20 -15 -31 -31 -31h-59c-21 0 -31 16 -31 32s10 31 31 31h27v605z" />
    <glyph glyph-name="braceleft" unicode="{" horiz-adv-x="325" 
d="M51 366c0 12 6 22 16 27c56 31 60 103 63 168c5 91 10 171 114 171c17 0 31 -14 31 -32c0 -17 -14 -31 -31 -31c-45 0 -48 -52 -52 -111c-3 -68 -7 -142 -58 -192c51 -50 55 -124 58 -192c4 -59 7 -111 52 -111c17 0 31 -14 31 -31c0 -18 -14 -32 -31 -32
c-104 0 -109 80 -114 171c-3 65 -7 137 -63 168c-10 5 -17 16 -16 27v0z" />
    <glyph glyph-name="bracketleft" unicode="[" horiz-adv-x="221" 
d="M113 668v-605h28c20 0 30 -15 30 -31s-10 -32 -30 -32h-59c-16 0 -32 11 -32 31v670c0 20 16 31 32 31h59c20 0 30 -16 30 -32s-10 -32 -30 -32h-28v0z" />
    <glyph glyph-name="D" unicode="D" horiz-adv-x="719" 
d="M157 669v-606h144c81 0 159 31 217 88c56 57 89 135 89 215c0 40 62 40 62 0c0 -97 -39 -190 -107 -259c-70 -70 -165 -107 -264 -107h-217c-41 0 -41 63 0 63h13v606h-13c-41 0 -41 63 0 63h219c97 0 192 -37 262 -106c58 -59 92 -132 103 -207c-21 10 -44 7 -62 -5
c-10 62 -38 120 -85 168c-56 55 -134 87 -213 87h-148v0z" />
    <glyph glyph-name="B" unicode="B" horiz-adv-x="630" 
d="M156 669v-246c-35 -13 -50 -59 -27 -92c7 -10 16 -18 27 -22v-246h222c38 2 72 16 98 40c55 53 55 139 0 192c-42 39 -100 39 -154 39h-144c-41 0 -41 64 0 64h145c66 0 129 52 137 119c5 40 -8 81 -41 112c-28 27 -65 40 -103 40h-160v0zM378 0v0h-298
c-40 0 -40 63 0 63h13v606h-13c-40 0 -40 63 0 63h238c54 0 105 -21 144 -58c49 -46 69 -111 59 -172c-8 -47 -33 -89 -70 -120c26 -9 48 -24 67 -42c82 -78 82 -205 0 -282c-37 -35 -89 -58 -140 -58z" />
    <glyph glyph-name="S" unicode="S" horiz-adv-x="595" 
d="M54 233c0 17 14 31 31 31h45c40 0 40 -63 0 -63h-11c7 -33 24 -63 49 -87c37 -35 89 -53 140 -49c39 2 78 18 107 43c28 24 46 57 46 96c0 63 -43 111 -99 134c-18 7 -38 11 -57 16c-39 11 -24 67 15 57c21 -6 42 -10 63 -17c82 -29 141 -102 141 -190
c0 -58 -27 -107 -68 -143c-39 -34 -91 -55 -144 -59c-68 -4 -137 20 -187 67c-45 43 -71 102 -71 164v0zM427 560h12c-7 27 -21 52 -42 71c-22 21 -50 36 -82 42c-49 9 -102 -4 -140 -37c-25 -21 -41 -51 -41 -86c0 -32 13 -62 35 -85c25 -26 61 -35 99 -43
c-14 -17 -18 -38 -12 -57c-51 11 -101 29 -135 70c-27 32 -43 73 -43 115c0 53 24 97 60 128c52 45 124 63 191 49c41 -9 78 -28 107 -56c40 -38 64 -91 64 -147c0 -15 -13 -28 -28 -28h-45c-41 0 -41 64 0 64v0z" />
    <glyph glyph-name="exclam" unicode="!" horiz-adv-x="164" 
d="M112 30c0 -20 -16 -30 -32 -30c-15 0 -31 10 -31 30v77c0 20 16 31 31 31c16 0 32 -11 32 -31v-77v0zM112 702v-477c0 -41 -64 -39 -63 1v476c0 20 16 31 31 31c16 0 32 -11 32 -31v0z" />
    <glyph glyph-name="question" unicode="?" horiz-adv-x="524" 
d="M79 489c-18 0 -31 14 -31 32c0 58 24 111 62 149c83 83 217 83 300 0c60 -60 77 -149 50 -227c-18 -54 -54 -93 -90 -132c-28 -30 -51 -60 -67 -98c-16 -37 -74 -13 -59 25c19 44 47 79 80 115c29 31 57 62 73 101c24 58 15 126 -31 172c-58 58 -153 58 -212 0
c-27 -27 -44 -65 -44 -106c0 -17 -14 -31 -31 -31v0zM295 29c0 -20 -16 -30 -32 -30s-32 10 -32 30v77c0 20 16 31 32 31s32 -11 32 -31v-77v0z" />
    <glyph glyph-name="F" unicode="F" horiz-adv-x="588" 
d="M157 669v-246c-35 -13 -50 -59 -28 -92c7 -10 17 -18 28 -22v-247h8c41 0 41 -63 0 -63h-79c-41 0 -41 63 0 63h8v607h-13c-41 0 -41 63 0 63h426c21 0 31 -17 30 -33v-44c0 -40 -63 -40 -63 0v14h-317v0zM422 334h-244c-40 0 -40 64 0 64h244c40 0 40 -64 0 -64v0z" />
    <glyph glyph-name="X" unicode="X" horiz-adv-x="693" 
d="M197 63v0c37 -3 36 -63 -4 -63h-79c-40 0 -40 63 0 63h8l191 303l-190 303h-9c-40 0 -40 63 0 63h79c40 0 41 -60 4 -63l154 -244l153 244c-36 3 -35 63 4 63h79c41 0 41 -63 0 -63h-8l-185 -294c-26 5 -55 -9 -67 -36c-10 -21 -5 -41 7 -59zM587 0v0c41 0 41 63 0 63h-8
l-170 270c-22 34 -75 1 -53 -34c49 -78 99 -157 148 -236c-37 -3 -35 -63 4 -63h79z" />
    <glyph glyph-name="T" unicode="T" horiz-adv-x="671" 
d="M375 0h-79c-40 0 -40 63 0 63h8v578c0 40 63 40 63 0v-578h8c41 0 41 -63 0 -63v0zM282 669h-169v-14c0 -40 -63 -40 -63 0v45c0 18 12 32 31 32h510c20 0 30 -16 30 -32v-45c0 -40 -63 -40 -63 0v14h-168c-23 42 -87 41 -108 0v0z" />
    <glyph glyph-name="E" unicode="E" horiz-adv-x="690" 
d="M209 669v-246c-52 -19 -49 -96 0 -114v-246h317v14c0 40 63 40 63 0v-45c0 -16 -10 -32 -30 -32h-426c-41 0 -41 63 0 63h13v606h-13c-41 0 -41 63 0 63h426c21 0 31 -17 30 -33v-44c0 -40 -63 -40 -63 0v14h-317v0zM474 334h-244c-40 0 -40 64 0 64h244
c40 0 40 -64 0 -64v0z" />
    <glyph glyph-name="A" unicode="A" horiz-adv-x="741" 
d="M371 616l-126 -323h-7c-50 0 -75 -56 -49 -95c4 -6 8 -11 13 -14l-47 -121h5c40 0 40 -63 0 -63h-80c-40 0 -40 63 0 63h8l236 607c-33 7 -31 63 7 63h79c38 0 41 -56 7 -63l237 -607h7c40 0 40 -63 0 -63h-79c-41 0 -41 63 0 63h4l-54 138h-294c-41 0 -41 63 0 63h270
l-137 352v0z" />
    <glyph glyph-name="H" unicode="H" horiz-adv-x="683" 
d="M151 669v-246c-52 -19 -49 -95 0 -113v-247h8c41 0 41 -63 0 -63h-79c-40 0 -40 63 0 63h8v606h-8c-40 0 -40 63 0 63h79c41 0 41 -63 0 -63h-8v0zM602 0h-79c-40 0 -40 63 0 63h8v272h-359c-40 0 -40 63 0 63h359v271h-8c-40 0 -40 63 0 63h79c41 0 41 -63 0 -63h-8
v-606h8c41 0 41 -63 0 -63v0z" />
    <glyph glyph-name="questiondown" unicode="&#xbf;" horiz-adv-x="524" 
d="M456 243c18 0 31 -14 31 -32c0 -58 -24 -111 -62 -149c-83 -83 -217 -83 -300 0c-60 60 -77 149 -50 227c18 54 54 93 90 132c28 30 51 60 67 98c16 37 74 13 59 -25c-19 -44 -47 -79 -80 -115c-29 -31 -57 -62 -73 -101c-24 -58 -15 -126 31 -172c58 -58 153 -58 212 0
c27 27 44 65 44 106c0 17 14 31 31 31zM240 703c0 20 16 30 32 30s32 -10 32 -30v-77c0 -20 -16 -31 -32 -31s-32 11 -32 31v77z" />
    <glyph glyph-name="six" unicode="6" horiz-adv-x="577" 
d="M457 406c46 -46 70 -108 70 -172c0 -41 -63 -41 -63 0c0 47 -15 92 -51 128c-69 69 -180 69 -249 0s-69 -180 0 -249s180 -69 249 0c21 20 36 46 44 74c18 -14 42 -17 63 -8c-11 -42 -33 -80 -63 -110c-93 -93 -244 -93 -337 0c-69 69 -88 171 -52 259
c20 49 51 97 75 145l127 243c10 18 28 20 42 13c14 -8 24 -24 14 -42l-117 -225c85 30 183 10 248 -56v0z" />
    <glyph glyph-name="Y" unicode="Y" horiz-adv-x="783" 
d="M183 669l206 -320l205 320c-37 3 -36 63 3 63h80c40 0 40 -63 0 -63h-8l-235 -367c-20 20 -54 26 -80 8c-4 -2 -7 -5 -10 -8l-236 367h-7c-41 0 -41 63 0 63h79c39 0 40 -60 3 -63v0zM428 0h-79c-40 0 -40 63 0 63h8v198c0 41 63 41 63 0v-198h8c41 0 41 -63 0 -63v0z
" />
    <glyph glyph-name="eight" unicode="8" horiz-adv-x="532" 
d="M397 679c72 -72 72 -189 0 -262c-7 -6 -13 -12 -20 -17c15 -9 29 -20 42 -33c84 -84 84 -221 0 -306c-85 -84 -222 -84 -306 0c-84 85 -84 222 0 306c12 13 26 24 42 33c-7 5 -14 11 -20 17c-73 73 -73 190 0 262c72 73 190 73 262 0v0zM264 426c40 0 40 -58 0 -58
s-79 -17 -107 -45c-60 -60 -60 -158 0 -218s157 -60 217 0c61 60 61 158 0 218c-17 18 -39 31 -64 39c17 20 17 51 -1 71c17 6 31 16 44 28c48 48 48 126 0 174s-126 48 -174 0s-48 -126 0 -174c23 -23 53 -35 85 -35v0z" />
    <glyph glyph-name="seven" unicode="7" horiz-adv-x="540" 
d="M134 45l125 282c14 -19 36 -28 57 -26l-125 -284c-16 -37 -73 -9 -57 28v0zM50 659v41c0 17 12 32 30 32h371c22 3 47 -18 36 -45l-149 -338c-15 -38 -75 -14 -59 23l130 297h-296v-10c0 -41 -63 -41 -63 0v0z" />
    <glyph glyph-name="Z" unicode="Z" horiz-adv-x="589" 
d="M56 49l200 314c22 34 76 3 55 -32l-169 -268h333v12c0 40 63 40 63 0v-41c1 -18 -11 -34 -30 -34h-420c-23 -3 -48 23 -32 49v0zM50 655v45c0 16 11 32 31 32h427c20 0 35 -20 30 -39c-2 -7 -6 -13 -10 -19c-49 -73 -120 -186 -191 -300c-10 19 -30 33 -53 33
c59 96 118 190 164 262h-334v-14c0 -40 -64 -40 -64 0v0z" />
    <glyph glyph-name="two" unicode="2" horiz-adv-x="560" 
d="M479 0h-399c-20 0 -30 16 -30 32c0 12 6 20 13 29c67 81 140 178 212 250c29 29 73 -16 45 -44c-60 -60 -119 -136 -174 -204h300v12c0 40 64 40 64 0v-43c0 -18 -13 -32 -31 -32v0zM310 348c9 9 17 19 26 29c51 55 98 118 98 173c0 35 -16 65 -41 86
c-38 33 -91 46 -140 37c-32 -6 -60 -21 -82 -42c-29 -28 -46 -66 -46 -107c0 -15 -13 -28 -28 -28c-16 0 -28 13 -28 28c0 56 24 109 64 147c28 28 65 47 106 56c67 14 139 -4 191 -49c36 -31 60 -75 60 -128c0 -81 -60 -157 -120 -224c-6 -6 -11 -12 -16 -18
c-7 19 -23 34 -44 40v0z" />
    <glyph glyph-name="nine" unicode="9" horiz-adv-x="577" 
d="M120 326c-93 93 -93 244 0 337s244 93 337 0c79 -79 92 -202 34 -295l-184 -353c-9 -17 -28 -19 -42 -12s-23 24 -14 42l98 187l28 11c46 18 51 79 12 107c9 6 17 12 24 20c69 68 69 180 0 249s-180 69 -249 0s-69 -181 0 -249c48 -48 120 -64 180 -41
c38 15 61 -44 23 -59c-84 -32 -183 -8 -247 56z" />
    <glyph glyph-name="N" unicode="N" horiz-adv-x="664" 
d="M157 590v-527h8c40 0 40 -63 0 -63h-80c-40 0 -40 63 0 63h8v606h-13c-40 0 -40 63 0 63h45c12 0 22 -5 28 -16l189 -306c-21 0 -43 -12 -54 -33l-131 213v0zM583 63v0c41 0 41 -63 0 -63h-42c-12 0 -24 5 -30 16l-195 316c-22 34 30 71 51 36l141 -226v527h-8
c-40 0 -40 63 0 63h79c41 0 41 -63 0 -63h-8v-606h12z" />
    <glyph glyph-name="C" unicode="C" horiz-adv-x="737" 
d="M201 151c89 -88 222 -113 335 -64c37 16 70 39 98 67c12 12 32 13 44 1s12 -32 0 -44c-33 -35 -73 -62 -117 -81c-136 -59 -297 -29 -404 77c-68 69 -107 162 -107 259c0 40 62 40 62 0c0 -80 33 -158 89 -215v0zM54 419c10 75 45 148 103 207c107 106 268 136 404 77
c44 -19 84 -46 117 -81c6 -6 9 -14 9 -22v-44c0 -41 -63 -41 -63 0v33c-26 24 -55 43 -88 57c-113 49 -246 24 -335 -64c-47 -48 -75 -106 -85 -168c-18 12 -42 15 -62 5v0z" />
    <glyph glyph-name="OE" unicode="&#x152;" horiz-adv-x="1215" 
d="M676 624c17 -17 32 -35 45 -54v99h-13c-40 0 -40 63 0 63h426c21 0 31 -17 30 -33v-44c0 -40 -63 -40 -63 0v14h-316v-246c-15 -5 -27 -17 -33 -31c-13 -30 -1 -71 33 -83v-246h316v14c0 40 63 40 63 0v-45c0 -16 -10 -32 -30 -32h-426c-40 0 -40 63 0 63h13v98
c-13 -20 -28 -38 -45 -55c-143 -143 -375 -143 -518 0c-97 97 -130 239 -91 366c2 7 4 13 6 19c13 39 72 19 59 -20c-1 -3 -2 -6 -4 -10c-35 -107 -8 -229 74 -311c119 -118 312 -118 430 0c119 119 119 312 0 430c-118 119 -311 119 -430 0c-19 -19 -36 -41 -50 -65
c-12 17 -34 28 -56 26c16 31 38 59 62 83c143 143 375 143 518 0v0zM1049 334h-243c-41 0 -41 64 0 64h243c41 0 41 -64 0 -64v0z" />
    <glyph glyph-name="K" unicode="K" horiz-adv-x="623" 
d="M135 63h8c40 0 40 -63 0 -63h-80c-40 0 -40 63 0 63h8v606h-8c-40 0 -40 64 0 64h80c40 0 40 -64 0 -64h-8v-350l298 354c-25 12 -21 60 15 60h79c41 0 41 -64 0 -64h-18l-194 -228c-27 3 -56 -11 -67 -39c-5 -14 -5 -28 0 -41l-113 -132v-166v0zM560 0h-79
c-36 0 -40 50 -11 61l-192 304c-22 35 34 67 55 32l210 -334h17c41 0 41 -63 0 -63v0z" />
    <glyph glyph-name="five" unicode="5" horiz-adv-x="599" 
d="M137 347c-11 -10 -26 -11 -38 -3c-14 9 -18 26 -11 40l67 306c4 19 8 42 33 42h278c12 0 20 -6 25 -13c6 -8 5 -18 5 -28v-32c0 -41 -63 -41 -63 0v10h-218l-45 -205c98 59 224 44 305 -37c33 -33 57 -75 67 -123c-20 9 -44 7 -62 -6c-8 32 -26 62 -49 85
c-69 69 -182 73 -256 8c-15 -13 -24 -31 -38 -44v0zM485 250c0 41 64 41 64 0c0 -65 -27 -130 -74 -176c-73 -73 -184 -93 -277 -52c-79 35 -136 109 -147 198c-2 17 10 33 27 35s33 -10 35 -27c8 -67 51 -123 110 -149c70 -31 153 -16 208 39c36 36 54 83 54 132v0z" />
    <glyph glyph-name="V" unicode="V" horiz-adv-x="759" 
d="M155 670v0l254 -627c8 -19 -3 -34 -17 -40c-15 -6 -34 -3 -41 16l-265 651h-5c-41 0 -41 63 0 63h79c41 0 41 -63 0 -63h-5zM395 156v0l209 514h-5c-41 0 -41 63 0 63h79c41 0 41 -63 0 -63h-5l-244 -598z" />
    <glyph glyph-name="four" unicode="4" horiz-adv-x="587" 
d="M443 701v-495h63c20 0 31 -16 31 -31c0 -16 -11 -32 -31 -32h-63v-80h8c40 0 40 -63 0 -63h-80c-40 0 -40 63 0 63h8v56c34 14 47 58 26 91c-7 9 -16 16 -26 20v428l-244 -452h221c40 0 40 -63 0 -63h-275c-16 0 -26 10 -29 21c-4 14 2 25 9 37l279 516c6 12 17 16 27 15
h44c18 0 32 -13 32 -31v0z" />
    <glyph glyph-name="dollar" unicode="$" horiz-adv-x="595" 
d="M64 232c0 17 14 31 31 31h45c40 0 40 -63 0 -63h-11c7 -33 24 -63 49 -87c37 -35 89 -53 140 -49c39 2 78 18 107 43c28 24 46 57 46 96c0 63 -43 111 -99 134c-18 7 -38 11 -57 16c-39 11 -24 67 15 57c21 -6 42 -10 63 -17c82 -29 141 -102 141 -190
c0 -58 -27 -107 -68 -143c-37 -32 -86 -53 -136 -58v-36c0 -20 -16 -31 -31 -31c-16 0 -32 11 -32 31v38c-49 7 -96 30 -132 64c-45 43 -71 102 -71 164v0zM330 765v-37c3 -1 6 -1 9 -2c41 -9 78 -28 107 -56c40 -38 64 -91 64 -147c0 -15 -13 -28 -28 -28h-45
c-41 0 -41 64 0 64h12c-7 27 -21 52 -42 71c-22 21 -50 36 -82 42c-49 9 -102 -4 -140 -37c-25 -21 -41 -51 -41 -86c0 -32 13 -62 35 -85c25 -26 61 -35 99 -43c-14 -17 -18 -38 -12 -57c-51 11 -101 29 -135 70c-27 32 -43 73 -43 115c0 53 24 97 60 128
c34 29 76 47 119 52v36c0 21 16 31 32 31c15 0 31 -10 31 -31v0z" />
    <glyph glyph-name="U" unicode="U" horiz-adv-x="729" 
d="M180 669h-8v-421c0 -50 19 -96 54 -132c35 -35 86 -54 135 -54c41 0 41 -62 0 -62c-65 0 -132 25 -179 72s-73 111 -73 177v420h-8c-40 0 -40 63 0 63h79c41 0 41 -63 0 -63v0zM409 67c35 8 67 24 92 49c36 36 54 82 54 132v421h-8c-41 0 -41 63 0 63h79
c41 0 41 -63 0 -63h-8v-420c0 -66 -25 -130 -73 -177c-35 -36 -81 -58 -130 -67c9 19 8 42 -5 61c0 0 0 1 -1 1v0z" />
    <glyph glyph-name="three" unicode="3" horiz-adv-x="544" 
d="M416 390c4 -4 9 -8 13 -12c86 -86 86 -227 0 -314c-44 -44 -104 -64 -163 -64c-40 0 -41 63 0 63c44 0 86 13 119 46c59 59 61 153 9 217c-19 24 -43 30 -72 30c-20 0 -31 16 -31 32s11 32 31 32c33 0 61 17 74 47c25 54 18 118 -26 161c-54 54 -142 54 -197 0
c-25 -25 -40 -60 -40 -98c0 -17 -14 -31 -31 -31s-31 13 -31 30c-1 53 21 106 58 143c79 79 207 79 285 0c78 -77 79 -203 2 -282v0zM123 253v0c40 0 40 -64 0 -64h-8c7 -31 22 -59 44 -80c17 -18 38 -31 61 -39c-14 -17 -18 -41 -9 -62c-37 10 -70 30 -96 56
c-40 41 -65 96 -65 157c0 17 13 32 31 32h42z" />
    <glyph glyph-name="I" unicode="I" horiz-adv-x="280" 
d="M171 669v-606h8c41 0 41 -63 0 -63h-79c-41 0 -41 63 0 63h8v606h-8c-41 0 -41 63 0 63h79c41 0 41 -63 0 -63h-8v0z" />
    <glyph glyph-name="R" unicode="R" horiz-adv-x="613" 
d="M157 63v0h8c41 0 41 -63 0 -63h-79c-40 0 -40 63 0 63h8v606h-13c-41 0 -41 63 0 63h234c58 0 111 -24 150 -62c82 -83 82 -217 0 -300c-38 -37 -88 -57 -140 -60l196 -247h11c41 0 41 -63 0 -63h-79c-36 0 -40 51 -11 62l-197 248h-67c-40 0 -40 63 0 63h137
c39 0 77 13 106 41c58 58 58 153 0 212c-28 27 -65 43 -106 43h-158v-270c-11 -4 -21 -12 -28 -22c-22 -34 -7 -79 28 -92v-222z" />
    <glyph glyph-name="P" unicode="P" horiz-adv-x="576" 
d="M156 63v0h8c41 0 41 -63 0 -63h-79c-40 0 -40 63 0 63h8v606h-13c-40 0 -40 63 0 63h234c58 0 111 -24 150 -62c82 -83 82 -217 0 -300c-40 -40 -94 -60 -150 -60h-137c-40 0 -40 63 0 63h137c39 0 78 13 106 41c58 58 58 153 0 212c-28 27 -65 43 -106 43h-158v-270
c-11 -4 -21 -12 -27 -22c-23 -34 -8 -79 27 -92v-222z" />
    <glyph glyph-name="zero" unicode="0" horiz-adv-x="577" 
d="M50 494c0 66 27 126 70 169c93 93 244 93 337 0c43 -43 70 -103 70 -169v-254c0 -66 -27 -126 -70 -169c-33 -33 -73 -54 -116 -64c8 19 8 41 -5 60c0 1 -1 2 -2 3c29 7 57 22 79 45c32 32 52 76 52 125v254c0 49 -20 93 -52 125c-69 69 -180 69 -249 0
c-32 -32 -52 -76 -52 -125v-254c0 -49 20 -93 52 -125c33 -33 77 -51 123 -51c41 0 41 -63 0 -63c-60 0 -123 27 -167 70c-43 43 -70 103 -70 169v254v0z" />
    <glyph glyph-name="J" unicode="J" horiz-adv-x="626" 
d="M495 668v-451c0 -60 -19 -117 -64 -161c-36 -33 -89 -59 -138 -59c-41 0 -41 63 0 63c34 0 70 18 95 42c36 34 43 74 43 117v449h-8c-40 0 -40 64 0 64h80c41 0 41 -64 0 -64h-8v0zM240 0c-15 2 -30 7 -44 12c-51 21 -93 60 -115 110c-8 16 0 34 15 41c16 7 35 0 42 -16
c15 -35 45 -62 81 -77c8 -3 16 -5 24 -7c-13 -20 -13 -44 -3 -63v0z" />
    <glyph glyph-name="O" unicode="O" horiz-adv-x="834" 
d="M676 625c143 -143 143 -375 0 -518s-376 -143 -518 0c-97 97 -131 239 -92 366c2 7 4 13 7 19c13 39 71 19 58 -20c-1 -3 -2 -6 -3 -10c-36 -107 -8 -229 74 -311c118 -118 311 -118 430 0c118 119 118 312 0 430c-119 119 -312 119 -430 0c-20 -19 -37 -41 -50 -65
c-13 17 -34 28 -57 26c17 31 38 59 63 83c142 143 375 143 518 0v0z" />
    <glyph glyph-name="Q" unicode="Q" horiz-adv-x="833" 
d="M676 625c128 -127 142 -329 37 -474c-10 5 -22 7 -35 5c-40 -7 -63 -51 -46 -86c-145 -105 -347 -91 -474 37c-143 143 -143 375 0 518c142 143 375 143 518 0v0zM710 118v0l60 -63c28 -30 -17 -73 -45 -44l-61 64c-28 29 18 72 46 43zM202 581
c-119 -118 -119 -311 0 -430c118 -118 311 -118 430 0c118 119 118 312 0 430c-119 119 -312 119 -430 0v0z" />
    <glyph glyph-name="G" unicode="G" horiz-adv-x="702" 
d="M652 345v-26c-22 13 -52 11 -72 -6h-142v-14c0 -40 -63 -40 -63 0v44c-1 16 9 33 30 33h216c17 0 31 -12 31 -31v0zM582 593v29c-14 10 -29 17 -45 24c-112 49 -246 24 -335 -64c-118 -119 -118 -312 0 -431c89 -88 223 -113 335 -64c19 8 36 17 52 29v152
c0 40 63 40 63 0v-168c0 -11 -4 -19 -11 -24c-25 -19 -51 -34 -79 -46c-136 -59 -297 -29 -404 77c-143 143 -143 376 0 519c107 106 268 136 404 77c25 -10 49 -24 70 -40c9 -6 13 -16 13 -25v-45c0 -40 -63 -40 -63 0v0z" />
    <glyph glyph-name="L" unicode="L" horiz-adv-x="596" 
d="M158 669v-578c0 -41 -63 -41 -63 0c-1 192 0 385 0 578h-9c-40 0 -40 63 0 63h80c40 0 40 -63 0 -63h-8v0zM516 0v0h-435c-37 0 -40 54 -8 62c10 -19 32 -31 55 -31c21 1 42 13 52 32h303v14c0 40 63 40 63 0v-45c0 -16 -10 -32 -30 -32z" />
    <glyph glyph-name="equal" unicode="=" horiz-adv-x="458" 
d="M377 257h-297c-20 0 -30 16 -30 31c0 16 10 32 30 32h297c21 0 31 -16 31 -32c0 -15 -10 -31 -31 -31v0zM377 392h-297c-20 0 -30 16 -30 32s10 32 30 32h297c21 0 31 -16 31 -32s-10 -32 -31 -32v0z" />
    <glyph glyph-name="trademark" unicode="&#x2122;" horiz-adv-x="562" 
d="M178 443v0c16 0 16 25 0 25h-3v227c0 16 -25 16 -25 0v-227h-3c-16 0 -16 -25 0 -25h31zM463 708v0c-10 5 -8 23 6 23h31c16 0 16 -25 0 -25h-3v-238h3c16 0 16 -25 0 -25h-31c-16 0 -16 25 0 25h3v208l-84 -136c-5 -8 -16 -8 -21 0l-83 136v-208h3c16 0 16 -25 0 -25
h-32c-15 0 -15 25 0 25h4v238h-76c-8 17 -34 17 -42 0h-66v-5c0 -16 -25 -16 -25 0v18c0 7 4 12 12 12h225c13 0 15 -18 6 -23l85 -138z" />
    <glyph glyph-name="asterisk" unicode="*" horiz-adv-x="416" 
d="M176 675v85c0 20 16 30 32 30s31 -10 31 -30v-85l81 40c19 9 35 0 42 -14s5 -33 -13 -42l-97 -48l77 -85c13 -15 8 -33 -4 -44c-11 -10 -30 -13 -43 2l-74 82l-74 -82c-13 -15 -32 -12 -44 -2c-12 11 -16 29 -3 44l76 85l-96 48c-18 9 -20 28 -13 42s23 23 41 14l81 -40
v0z" />
    <glyph glyph-name="cent" unicode="&#xa2;" horiz-adv-x="633" 
d="M542 130c13 -12 14 -32 2 -45c-14 -15 -29 -28 -45 -39c-40 -28 -85 -43 -131 -47v-31c0 -21 -16 -31 -32 -31s-32 10 -32 31v34c-53 9 -104 34 -144 74c-42 42 -77 108 -77 168c0 40 63 40 63 0c0 -45 27 -93 58 -124c69 -69 179 -79 259 -23c13 8 24 19 35 30
c11 13 31 14 44 3v0zM368 560v-31c52 -4 103 -23 145 -57c13 -10 16 -27 8 -40l-22 -40c-19 -36 -75 -5 -56 30l9 17c-77 46 -181 36 -248 -31c-32 -32 -51 -72 -57 -113c-19 11 -43 12 -63 0c6 58 32 113 76 157c40 41 91 65 144 74v34c0 21 16 31 32 31s32 -10 32 -31v0z
" />
    <glyph glyph-name="registered" unicode="&#xae;" horiz-adv-x="536" 
d="M357 248c16 0 16 -25 0 -25h-31c-15 0 -16 20 -5 24l-78 98h-26c-16 0 -16 25 0 25h54c15 0 31 5 42 16c23 23 23 60 0 83c-11 11 -26 17 -42 17h-62v-106c-5 -2 -8 -5 -11 -9c-9 -13 -3 -31 11 -36v-87h3c16 0 16 -25 0 -25h-31c-16 0 -16 25 0 25h3v238h-5
c-16 0 -16 25 0 25h92c23 0 44 -9 59 -24c33 -33 33 -86 0 -118c-15 -15 -34 -23 -55 -24l77 -97h5zM422 521c85 -85 85 -223 0 -308s-223 -85 -308 0s-85 223 0 308s223 85 308 0zM403 232c75 74 75 196 0 271c-74 74 -196 74 -271 0c-74 -75 -74 -197 0 -271
c75 -75 197 -75 271 0z" />
    <glyph glyph-name="greater" unicode="&#x3e;" horiz-adv-x="406" 
d="M66 469v0c-18 11 -19 29 -11 43s25 22 42 12l241 -139c10 -6 18 -15 17 -28c1 -10 -4 -20 -15 -27l-243 -140c-17 -10 -34 -2 -42 12s-7 33 11 43l194 112z" />
    <glyph glyph-name="less" unicode="&#x3c;" horiz-adv-x="406" 
d="M340 469l-195 -112l195 -112c17 -10 18 -29 11 -43c-8 -14 -25 -22 -43 -12l-242 140c-12 7 -16 17 -16 27c0 13 7 22 18 28l240 139c18 10 35 2 43 -12c7 -14 6 -32 -11 -43v0z" />
    <glyph glyph-name="plus" unicode="+" horiz-adv-x="458" 
d="M260 505v-117h117c21 0 31 -16 31 -32s-10 -31 -31 -31h-117v-117c0 -21 -15 -31 -31 -31s-32 10 -32 31v117h-117c-20 0 -30 15 -30 31s10 32 30 32h117v117c0 20 16 30 32 30s31 -10 31 -30v0z" />
    <glyph glyph-name="copyright" unicode="&#xa9;" horiz-adv-x="536" 
d="M152 386c-7 5 -16 6 -25 2c5 29 18 58 41 81c42 42 106 54 159 31c18 -8 33 -19 47 -32c2 -3 3 -6 3 -9v-17c0 -16 -25 -16 -25 0v13c-10 9 -22 17 -34 22c-45 19 -98 10 -132 -25c-19 -19 -30 -42 -34 -66zM356 283c5 5 12 5 17 1c5 -5 5 -13 1 -18
c-14 -13 -29 -24 -47 -32c-53 -23 -117 -11 -159 31c-27 27 -42 64 -42 102c0 16 25 16 25 0c0 -32 12 -62 35 -85c34 -35 87 -44 132 -25c14 6 27 15 38 26zM422 521c85 -85 85 -223 0 -308s-223 -85 -308 0s-85 223 0 308s223 85 308 0zM403 232c75 74 75 196 0 271
c-74 74 -196 74 -271 0c-74 -75 -74 -197 0 -271c75 -75 197 -75 271 0z" />
    <glyph glyph-name="ellipsis" unicode="&#x2026;" horiz-adv-x="367" 
d="M84 69c19 0 35 -16 35 -35c0 -18 -16 -34 -35 -34c-18 0 -34 16 -34 34c0 19 16 35 34 35v0zM283 69c19 0 34 -16 34 -35c0 -18 -15 -34 -34 -34s-34 16 -34 34c0 19 15 35 34 35v0zM184 69c19 0 34 -16 34 -35c0 -18 -15 -34 -34 -34s-34 16 -34 34c0 19 15 35 34 35v0z
" />
    <glyph glyph-name="quotedblleft" unicode="&#x201c;" horiz-adv-x="286" 
d="M234 615v0c5 -19 -8 -33 -23 -37s-33 2 -38 21l-26 95c-5 19 8 33 23 37s33 -1 38 -21zM139 615v0c5 -19 -8 -33 -23 -37s-33 2 -38 21l-26 95c-5 19 8 33 23 37s33 -1 38 -21z" />
    <glyph glyph-name="quotedblright" unicode="&#x201d;" horiz-adv-x="286" 
d="M52 615l26 95c5 20 23 25 38 21s28 -18 23 -37l-26 -95c-5 -19 -23 -25 -38 -21s-28 18 -23 37zM147 615l26 95c5 20 23 25 38 21s28 -18 23 -37l-26 -95c-5 -19 -23 -25 -38 -21s-28 18 -23 37z" />
    <glyph glyph-name="comma" unicode="," horiz-adv-x="191" 
d="M52 -47l26 95c5 19 23 25 38 21s28 -18 23 -37l-26 -95c-5 -20 -23 -25 -38 -21s-28 18 -23 37v0z" />
    <glyph glyph-name="colon" unicode=":" horiz-adv-x="168" 
d="M84 70c19 0 34 -16 34 -35c0 -18 -15 -34 -34 -34s-34 16 -34 34c0 19 15 35 34 35v0zM84 335c19 0 34 -16 34 -35c0 -18 -15 -34 -34 -34s-34 16 -34 34c0 19 15 35 34 35v0z" />
    <glyph glyph-name="semicolon" unicode=";" horiz-adv-x="192" 
d="M52 -46l26 95c5 19 23 25 38 21s28 -18 23 -37l-26 -95c-5 -20 -23 -25 -38 -21s-28 18 -23 37v0zM108 335c19 0 34 -16 34 -35c0 -18 -15 -34 -34 -34s-34 16 -34 34c0 19 15 35 34 35v0z" />
    <glyph glyph-name="quoteleft" unicode="&#x2018;" horiz-adv-x="191" 
d="M52 614l26 95c5 20 23 25 38 21s28 -18 23 -37l-26 -95c-5 -19 -23 -25 -38 -21s-28 18 -23 37v0z" />
    <glyph glyph-name="degree" unicode="&#xb0;" horiz-adv-x="244" 
d="M189 681c9 -25 3 -53 -17 -73c-28 -28 -73 -28 -101 0c-18 18 -24 44 -18 67c7 32 37 55 70 55c30 -1 57 -20 66 -49v0zM105 642c9 -9 24 -9 33 0c16 15 4 40 -16 40s-32 -25 -17 -40v0z" />
    <glyph glyph-name="Scaron" unicode="&#x160;" horiz-adv-x="595" 
d="M64 231v0c0 -62 26 -121 71 -164c50 -47 119 -71 187 -67c53 4 105 25 145 59c40 36 67 85 67 143c0 88 -59 161 -141 190c-21 7 -42 11 -62 17c-39 10 -55 -46 -15 -56c18 -5 38 -10 56 -17c56 -23 100 -71 100 -134c0 -39 -19 -72 -46 -96c-29 -25 -68 -41 -108 -43
c-51 -4 -103 14 -140 49c-25 24 -42 54 -49 87h11c40 0 40 63 0 63h-45c-17 0 -31 -14 -31 -31zM299 837v0l36 36c12 13 29 9 39 -1c9 -10 13 -26 0 -39l-56 -56c-11 -10 -28 -10 -39 0l-56 56c-12 13 -9 29 1 39s26 14 39 1zM437 558v0c-40 0 -40 -63 0 -63h45
c15 0 28 12 28 27c0 56 -24 109 -64 148c-29 27 -66 47 -107 55c-66 14 -139 -3 -191 -48c-36 -32 -60 -76 -60 -129c0 -42 16 -83 43 -115c35 -40 84 -58 135 -70c-5 19 -2 40 12 57c-38 8 -73 17 -99 43c-22 23 -35 54 -35 85c0 35 16 65 41 86c38 33 92 46 141 37
c31 -6 59 -21 81 -42c21 -19 35 -44 42 -71h-12z" />
    <glyph glyph-name="sterling" unicode="&#xa3;" horiz-adv-x="582" 
d="M111 304h-30c-21 0 -31 16 -31 31c0 16 10 32 31 32h30v153c0 56 22 110 62 150c38 38 91 62 150 62h86c18 0 31 -14 31 -32v-44c0 -41 -63 -41 -63 0v13h-54c-41 0 -79 -16 -106 -43c-29 -29 -44 -68 -44 -106v-153h229c21 0 31 -16 31 -32c0 -15 -10 -31 -31 -31h-229
c0 -72 1 -142 1 -213c0 -41 -63 -41 -63 0v213v0zM197 63v0h272v13c0 41 63 41 63 0v-44c0 -16 -10 -32 -30 -32h-404c-37 0 -40 54 -9 62c11 -20 33 -31 55 -31c22 1 43 12 53 32z" />
    <glyph glyph-name="multiply" unicode="&#xd7;" horiz-adv-x="374" 
d="M104 402l83 -83l83 83c14 14 33 10 44 -1s15 -30 1 -44l-83 -83l83 -83c14 -14 10 -33 -1 -44s-30 -15 -44 -1l-83 83l-83 -83c-14 -14 -33 -10 -44 1s-15 30 -1 44l83 83l-83 83c-14 14 -10 33 1 44s30 15 44 1v0z" />
    <glyph glyph-name="Ntilde" unicode="&#xd1;" horiz-adv-x="664" 
d="M157 590v-527h8c40 0 40 -63 0 -63h-80c-40 0 -40 63 0 63h9v606h-14c-40 0 -40 63 0 63h45c12 0 23 -5 28 -16l189 -306c-21 0 -43 -12 -54 -32l-131 212v0zM277 806c-6 -13 -21 -19 -34 -15c-12 4 -20 16 -20 29c1 10 7 21 13 29c27 35 78 38 109 7c6 -5 9 -13 14 -18
c7 -7 18 -6 24 2c2 3 3 8 6 12c7 10 20 15 32 11s20 -15 19 -28c0 -10 -6 -22 -13 -30c-26 -34 -77 -38 -108 -7c-6 6 -9 13 -14 18s-13 6 -19 3c-5 -3 -7 -8 -9 -13v0zM583 63v0c41 0 41 -63 0 -63h-42c-12 0 -23 5 -29 16l-196 316c-21 34 30 71 51 37l141 -227v527h-8
c-40 0 -40 63 0 63h80c40 0 40 -63 0 -63h-9v-606h12z" />
    <glyph glyph-name="Yacute" unicode="&#xdd;" horiz-adv-x="737" 
d="M163 669v0c38 3 37 63 -3 63h-79c-41 0 -41 -63 0 -63h7l236 -367c3 3 6 6 10 8c26 18 60 12 80 -8l236 367h7c40 0 40 63 0 63h-79c-40 0 -41 -60 -3 -63l-206 -320zM342 779v0c-15 -8 -30 -1 -37 11s-6 29 9 38l82 47c15 9 30 1 37 -11s6 -28 -9 -37zM409 0v0
c40 0 40 63 0 63h-9v198c0 41 -63 41 -63 0v-198h-8c-40 0 -40 -63 0 -63h80z" />
    <glyph glyph-name="Idieresis" unicode="&#xcf;" horiz-adv-x="309" 
d="M187 669v-606h9c40 0 40 -63 0 -63h-80c-40 0 -40 63 0 63h8v606h-8c-40 0 -40 63 0 63h80c40 0 40 -63 0 -63h-9v0zM102 835c0 -23 -19 -43 -43 -43s-43 20 -43 43c0 24 19 44 43 44s43 -20 43 -44zM293 835c0 -23 -19 -43 -43 -43s-43 20 -43 43c0 24 19 44 43 44
s43 -20 43 -44z" />
    <glyph glyph-name="Icircumflex" unicode="&#xce;" horiz-adv-x="327" 
d="M192 669v-606h9c40 0 40 -63 0 -63h-80c-40 0 -40 63 0 63h8v606h-8c-40 0 -40 63 0 63h80c40 0 40 -63 0 -63h-9v0zM199 776l-36 36l-36 -36c-12 -13 -28 -10 -38 0s-14 27 -1 39l56 56c11 11 28 11 39 0l56 -56c12 -12 9 -29 -1 -39s-26 -13 -39 0z" />
    <glyph glyph-name="Aring" unicode="&#xc5;" horiz-adv-x="741" 
d="M370 615l-125 -323h-7c-50 0 -75 -56 -49 -94c4 -6 8 -10 13 -14l-46 -121h4c40 0 40 -63 0 -63h-80c-40 0 -40 63 0 63h8l235 606c-33 6 -31 62 7 62h80c38 0 40 -56 7 -62l236 -606h7c41 0 41 -63 0 -63h-79c-41 0 -41 63 0 63h4l-53 138h-294c-40 0 -41 62 0 62h269
l-137 352v0zM437 847c9 -25 3 -53 -17 -73c-27 -28 -73 -28 -101 0c-18 18 -24 44 -18 67c7 32 37 55 70 54c30 0 57 -20 66 -48v0zM353 808c9 -10 24 -10 33 0c16 15 4 39 -16 40c-20 0 -32 -25 -17 -40v0z" />
    <glyph glyph-name="Iacute" unicode="&#xcd;" horiz-adv-x="327" 
d="M136 779v0c-15 -8 -30 -1 -37 11s-6 29 9 38l82 47c15 9 30 1 37 -11s6 -28 -9 -37zM194 669v0h9c40 0 40 63 0 63h-80c-40 0 -40 -63 0 -63h8v-606h-8c-40 0 -40 -63 0 -63h80c40 0 40 63 0 63h-9v606z" />
    <glyph glyph-name="Otilde" unicode="&#xd5;" horiz-adv-x="834" 
d="M676 626c143 -143 143 -376 0 -519s-375 -143 -518 0c-97 97 -131 239 -92 366c2 7 4 13 7 20c13 38 72 18 58 -21c-1 -3 -2 -6 -3 -10c-36 -107 -8 -229 74 -311c119 -118 311 -118 430 0c119 119 119 312 0 430c-119 119 -311 119 -430 0c-20 -19 -36 -41 -50 -65
c-12 17 -34 28 -57 26c17 31 38 59 63 84c143 143 375 143 518 0v0zM362 807c-6 -13 -21 -19 -34 -15c-12 4 -20 16 -20 29c1 10 7 21 13 29c27 35 78 38 109 7c6 -5 9 -13 14 -18c7 -7 18 -6 24 2c2 3 3 8 6 12c7 10 20 15 32 11s20 -15 19 -28c0 -10 -6 -22 -13 -30
c-26 -34 -77 -38 -108 -7c-6 6 -9 13 -14 18s-13 6 -19 3c-5 -3 -7 -8 -9 -13v0z" />
    <glyph glyph-name="Igrave" unicode="&#xcc;" horiz-adv-x="338" 
d="M200 669v-606h9c40 0 40 -63 0 -63h-80c-40 0 -40 63 0 63h8v606h-8c-40 0 -40 63 0 63h80c40 0 40 -63 0 -63h-9v0zM196 779l-82 48c-15 9 -16 25 -9 37s22 20 37 11l82 -47c15 -9 16 -26 9 -38s-22 -19 -37 -11v0z" />
    <glyph glyph-name="Adieresis" unicode="&#xc4;" horiz-adv-x="742" 
d="M371 616l-126 -323h-7c-50 0 -75 -56 -49 -95c4 -6 8 -10 13 -14l-46 -121h4c40 0 40 -63 0 -63h-80c-40 0 -40 63 0 63h8l236 607c-33 7 -31 63 7 63h80c38 0 40 -56 7 -63l236 -607h7c41 0 41 -63 0 -63h-79c-41 0 -41 63 0 63h4l-53 138h-295c-40 0 -41 63 0 63h270
l-137 352v0zM319 835c0 -23 -19 -43 -43 -43s-43 20 -43 43c0 24 19 44 43 44s43 -20 43 -44zM510 835c0 -23 -19 -43 -43 -43s-43 20 -43 43c0 24 19 44 43 44s43 -20 43 -44z" />
    <glyph glyph-name="Atilde" unicode="&#xc3;" horiz-adv-x="742" 
d="M371 616l-126 -323h-7c-50 0 -75 -56 -49 -95c4 -6 8 -10 13 -14l-46 -121h4c40 0 40 -63 0 -63h-80c-40 0 -40 63 0 63h8l236 607c-33 7 -31 63 7 63h80c38 0 40 -56 7 -63l236 -607h7c41 0 41 -63 0 -63h-79c-41 0 -41 63 0 63h4l-53 138h-295c-40 0 -41 63 0 63h270
l-137 352v0zM316 807c-6 -13 -21 -19 -34 -15c-12 4 -20 16 -20 29c1 10 7 21 13 29c27 35 78 38 109 7c6 -5 9 -13 14 -18c7 -7 18 -6 24 2c2 3 3 8 6 12c7 10 20 15 32 11s20 -15 19 -28c0 -10 -6 -22 -13 -30c-26 -34 -77 -38 -108 -7c-6 6 -9 13 -14 18s-13 6 -19 3
c-5 -3 -7 -8 -9 -13v0z" />
    <glyph glyph-name="AE" unicode="&#xc6;" horiz-adv-x="1089" 
d="M371 615l-126 -322h-7c-51 0 -76 -56 -49 -95c3 -6 8 -11 13 -15l-47 -120h4c41 0 41 -63 0 -63h-79c-40 0 -40 63 0 63h7l237 606c-33 7 -31 63 7 63h79c38 0 41 -56 7 -63l178 -454v454h-13c-41 0 -41 63 0 63h426c21 0 31 -17 30 -33v-43c0 -41 -63 -41 -63 0v13h-317
v-246c-52 -19 -49 -96 0 -114v-246h317v14c0 40 63 40 63 0v-45c0 -16 -10 -32 -30 -32h-426c-41 0 -41 63 0 63h4l-54 138h-294c-41 0 -41 63 0 63h270l-137 351v0zM923 334h-244c-40 0 -40 64 0 64h244c40 0 40 -64 0 -64v0z" />
    <glyph glyph-name="Acircumflex" unicode="&#xc2;" horiz-adv-x="741" 
d="M508 264l-137 352l-126 -323h-7c-50 0 -75 -56 -49 -95c4 -6 8 -11 13 -14l-47 -121h5c40 0 40 -63 0 -63h-80c-40 0 -40 63 0 63h8l236 607c-33 7 -31 63 7 63h79c38 0 41 -56 7 -63l237 -607h7c40 0 40 -63 0 -63h-79c-41 0 -41 63 0 63h4l-54 138h-294
c-41 0 -41 63 0 63h270zM405 776l-36 36l-36 -36c-12 -13 -28 -10 -38 0s-14 27 -1 39l56 56c11 11 28 11 39 0l56 -56c12 -12 9 -29 -1 -39s-26 -13 -39 0z" />
    <glyph glyph-name="Aacute" unicode="&#xc1;" horiz-adv-x="742" 
d="M371 616v0l137 -352h-270c-41 0 -40 -63 0 -63h295l53 -138h-4c-41 0 -41 -63 0 -63h79c41 0 41 63 0 63h-7l-236 607c33 7 31 63 -7 63h-80c-38 0 -40 -56 -7 -63l-236 -607h-8c-40 0 -40 -63 0 -63h80c40 0 40 63 0 63h-4l46 121c-5 4 -9 8 -13 14c-26 39 -1 95 49 95
h7zM344 780v0c-15 -8 -30 -1 -37 11s-6 29 9 38l82 47c15 9 30 1 37 -11s6 -28 -9 -37z" />
    <glyph glyph-name="Agrave" unicode="&#xc0;" horiz-adv-x="742" 
d="M371 616l-126 -323h-7c-50 0 -75 -56 -49 -95c4 -6 8 -10 13 -14l-46 -121h4c40 0 40 -63 0 -63h-80c-40 0 -40 63 0 63h8l236 607c-33 7 -31 63 7 63h80c38 0 40 -56 7 -63l236 -607h7c41 0 41 -63 0 -63h-79c-41 0 -41 63 0 63h4l-53 138h-295c-40 0 -41 63 0 63h270
l-137 352v0zM398 780l-82 48c-15 9 -16 25 -9 37s22 20 37 11l82 -47c15 -9 16 -26 9 -38s-22 -19 -37 -11v0z" />
    <glyph glyph-name="Udieresis" unicode="&#xdc;" horiz-adv-x="729" 
d="M181 669h-8v-421c0 -50 18 -96 53 -132c35 -35 86 -54 135 -54c41 0 41 -62 0 -62c-65 0 -132 25 -179 72s-73 111 -73 177v420h-8c-40 0 -40 63 0 63h80c40 0 40 -63 0 -63v0zM409 67c35 8 67 24 92 49c36 36 54 82 54 132v421h-8c-40 0 -40 63 0 63h79
c41 0 41 -63 0 -63h-8v-420c0 -66 -25 -130 -72 -177c-36 -36 -82 -58 -131 -67c9 18 8 42 -5 61c0 0 0 1 -1 1v0zM312 835c0 -23 -19 -43 -43 -43s-43 20 -43 43c0 24 19 44 43 44s43 -20 43 -44zM503 835c0 -23 -19 -43 -43 -43s-43 20 -43 43c0 24 19 44 43 44
s43 -20 43 -44z" />
    <glyph glyph-name="Odieresis" unicode="&#xd6;" horiz-adv-x="834" 
d="M676 626c143 -143 143 -376 0 -519s-375 -143 -518 0c-97 97 -131 239 -92 366c2 7 4 13 7 20c13 38 72 18 58 -21c-1 -3 -2 -6 -3 -10c-36 -107 -8 -229 74 -311c119 -118 311 -118 430 0c119 119 119 312 0 430c-119 119 -311 119 -430 0c-20 -19 -36 -41 -50 -65
c-12 17 -34 28 -57 26c17 31 38 59 63 84c143 143 375 143 518 0v0zM375 835c0 -23 -19 -43 -43 -43s-43 20 -43 43c0 24 19 44 43 44s43 -20 43 -44zM566 835c0 -23 -19 -43 -43 -43s-43 20 -43 43c0 24 19 44 43 44s43 -20 43 -44z" />
    <glyph glyph-name="Ocircumflex" unicode="&#xd4;" horiz-adv-x="834" 
d="M676 626c143 -143 143 -376 0 -519s-375 -143 -518 0c-97 97 -131 239 -92 366c2 7 4 13 7 20c13 38 72 18 58 -21c-1 -3 -2 -6 -3 -10c-36 -107 -8 -229 74 -311c119 -118 311 -118 430 0c119 119 119 312 0 430c-119 119 -311 119 -430 0c-20 -19 -36 -41 -50 -65
c-12 17 -34 28 -57 26c17 31 38 59 63 84c143 143 375 143 518 0v0zM454 776l-36 36l-36 -36c-12 -13 -28 -10 -38 0s-14 27 -1 39l56 56c11 11 28 11 39 0l56 -56c12 -12 9 -29 -1 -39s-26 -13 -39 0z" />
    <glyph glyph-name="Oacute" unicode="&#xd3;" horiz-adv-x="834" 
d="M390 781v0c-15 -8 -30 -1 -37 11s-6 29 9 38l82 47c15 9 30 1 37 -11s6 -28 -9 -37zM676 627v0c-143 143 -375 143 -518 0c-25 -25 -46 -53 -63 -84c23 2 45 -9 57 -26c14 24 30 46 50 65c119 119 311 119 430 0c119 -118 119 -311 0 -430c-119 -118 -311 -118 -430 0
c-82 82 -110 204 -74 311c1 4 2 7 3 10c14 39 -45 59 -58 21c-3 -7 -5 -13 -7 -20c-39 -127 -5 -269 92 -366c143 -143 375 -143 518 0s143 376 0 519z" />
    <glyph glyph-name="Edieresis" unicode="&#xcb;" horiz-adv-x="674" 
d="M199 669v-246c-52 -19 -49 -96 0 -114v-246h317v14c0 40 63 40 63 0v-45c0 -16 -10 -32 -30 -32h-426c-41 0 -41 63 0 63h13v606h-13c-41 0 -41 63 0 63h426c21 0 31 -17 30 -33v-43c0 -41 -63 -41 -63 0v13h-317v0zM464 334h-244c-40 0 -40 64 0 64h244
c40 0 40 -64 0 -64v0zM297 835c0 -23 -19 -43 -43 -43s-43 20 -43 43c0 24 19 44 43 44s43 -20 43 -44zM488 835c0 -23 -19 -43 -43 -43s-43 20 -43 43c0 24 19 44 43 44s43 -20 43 -44z" />
    <glyph glyph-name="Ograve" unicode="&#xd2;" horiz-adv-x="834" 
d="M676 626c143 -143 143 -376 0 -519s-375 -143 -518 0c-97 97 -131 239 -92 366c2 7 4 13 7 20c13 38 72 18 58 -21c-1 -3 -2 -6 -3 -10c-36 -107 -8 -229 74 -311c119 -118 311 -118 430 0c119 119 119 312 0 430c-119 119 -311 119 -430 0c-20 -19 -36 -41 -50 -65
c-12 17 -34 28 -57 26c17 31 38 59 63 84c143 143 375 143 518 0v0zM444 780l-82 48c-15 9 -16 25 -9 37s22 20 37 11l82 -47c15 -9 16 -26 9 -38s-22 -19 -37 -11v0z" />
    <glyph glyph-name="Ecircumflex" unicode="&#xca;" horiz-adv-x="672" 
d="M204 669v-246c-52 -19 -49 -96 0 -114v-246h317v14c0 40 63 40 63 0v-45c0 -16 -10 -32 -30 -32h-426c-41 0 -41 63 0 63h13v606h-13c-41 0 -41 63 0 63h426c21 0 31 -17 30 -33v-43c0 -41 -63 -41 -63 0v13h-317v0zM469 334h-244c-40 0 -40 64 0 64h244
c40 0 40 -64 0 -64v0zM387 776l-36 36l-36 -36c-12 -13 -28 -10 -38 0s-14 27 -1 39l56 56c11 11 28 11 39 0l56 -56c12 -12 9 -29 -1 -39s-26 -13 -39 0z" />
    <glyph glyph-name="Eacute" unicode="&#xc9;" horiz-adv-x="670" 
d="M312 779v0c-15 -8 -30 -1 -37 11s-6 29 9 38l82 47c15 9 30 1 37 -11s6 -28 -9 -37zM202 669v0h317v-13c0 -41 63 -41 63 0v43c1 16 -9 33 -30 33h-426c-41 0 -41 -63 0 -63h13v-606h-13c-41 0 -41 -63 0 -63h426c20 0 30 16 30 32v45c0 40 -63 40 -63 0v-14h-317v246
c-49 18 -52 95 0 114v246zM467 334v0c40 0 40 64 0 64h-244c-40 0 -40 -64 0 -64h244z" />
    <glyph glyph-name="Ydieresis" unicode="&#x178;" horiz-adv-x="737" 
d="M163 669l206 -320l206 320c-38 3 -37 63 3 63h79c40 0 40 -63 0 -63h-7l-236 -367c-20 20 -54 26 -80 8c-4 -2 -7 -5 -10 -8l-236 367h-7c-41 0 -41 63 0 63h79c40 0 41 -60 3 -63v0zM409 0h-80c-40 0 -40 63 0 63h8v198c0 41 63 41 63 0v-198h9c40 0 40 -63 0 -63v0z
M315 835c0 -23 -19 -43 -43 -43s-43 20 -43 43c0 24 19 44 43 44s43 -20 43 -44zM506 835c0 -23 -19 -43 -43 -43s-43 20 -43 43c0 24 19 44 43 44s43 -20 43 -44z" />
    <glyph glyph-name="Egrave" unicode="&#xc8;" horiz-adv-x="683" 
d="M202 669v-246c-52 -19 -49 -96 0 -114v-246h317v14c0 40 63 40 63 0v-45c0 -16 -10 -32 -30 -32h-426c-41 0 -41 63 0 63h13v606h-13c-41 0 -41 63 0 63h426c21 0 31 -17 30 -33v-43c0 -41 -63 -41 -63 0v13h-317v0zM366 779l-82 48c-15 9 -16 25 -9 37s22 20 37 11
l82 -47c15 -9 16 -26 9 -38s-22 -19 -37 -11v0zM467 334h-244c-40 0 -40 64 0 64h244c40 0 40 -64 0 -64v0z" />
    <glyph glyph-name="Ucircumflex" unicode="&#xdb;" horiz-adv-x="704" 
d="M169 669h-8v-421c0 -50 18 -96 53 -132c35 -35 86 -54 135 -54c41 0 41 -62 0 -62c-65 0 -132 25 -179 72s-73 111 -73 177v420h-8c-40 0 -40 63 0 63h80c40 0 40 -63 0 -63v0zM397 67c35 8 67 24 92 49c36 36 54 82 54 132v421h-8c-40 0 -40 63 0 63h79
c41 0 41 -63 0 -63h-8v-420c0 -66 -25 -130 -72 -177c-36 -36 -82 -58 -131 -67c9 18 8 42 -5 61c0 0 0 1 -1 1v0zM389 776l-36 36l-36 -36c-12 -13 -28 -10 -38 0s-14 27 -1 39l56 56c11 11 28 11 39 0l56 -56c12 -12 9 -29 -1 -39s-26 -13 -39 0z" />
    <glyph glyph-name="Uacute" unicode="&#xda;" horiz-adv-x="729" 
d="M181 669v0c40 0 40 63 0 63h-80c-40 0 -40 -63 0 -63h8v-420c0 -66 26 -130 73 -177s114 -72 179 -72c41 0 41 62 0 62c-49 0 -100 19 -135 54c-35 36 -53 82 -53 132v421h8zM337 779v0c-15 -8 -30 -1 -37 11s-6 29 9 38l82 47c15 9 30 1 37 -11s6 -28 -9 -37zM409 67v0
c1 0 1 -1 1 -1c13 -19 14 -43 5 -61c49 9 95 31 131 67c47 47 72 111 72 177v420h8c41 0 41 63 0 63h-79c-40 0 -40 -63 0 -63h8v-421c0 -50 -18 -96 -54 -132c-25 -25 -57 -41 -92 -49z" />
    <glyph glyph-name="Ugrave" unicode="&#xd9;" horiz-adv-x="713" 
d="M173 669h-8v-421c0 -50 18 -96 53 -132c35 -35 86 -54 135 -54c41 0 41 -62 0 -62c-65 0 -132 25 -179 72s-73 111 -73 177v420h-8c-40 0 -40 63 0 63h80c40 0 40 -63 0 -63v0zM383 779l-82 48c-15 9 -16 25 -9 37s22 20 37 11l82 -47c15 -9 16 -26 9 -38
s-22 -19 -37 -11v0zM401 67c35 8 67 24 92 49c36 36 54 82 54 132v421h-8c-40 0 -40 63 0 63h79c41 0 41 -63 0 -63h-8v-420c0 -66 -25 -130 -72 -177c-36 -36 -82 -58 -131 -67c9 18 8 42 -5 61c0 0 0 1 -1 1v0z" />
    <glyph glyph-name="period" unicode="." horiz-adv-x="168" 
d="M84 70c19 0 34 -16 34 -35c0 -18 -15 -34 -34 -34s-34 16 -34 34c0 19 15 35 34 35z" />
    <glyph glyph-name="quoteright" unicode="&#x2019;" horiz-adv-x="191" 
d="M52 614l26 95c5 20 23 25 38 21s28 -18 23 -37l-26 -95c-5 -19 -23 -25 -38 -21s-28 18 -23 37z" />
    <glyph glyph-name="s" unicode="s" horiz-adv-x="485" 
d="M121 140c20 -54 81 -83 136 -79c50 3 113 35 113 92c0 43 -36 70 -74 84c-13 4 -27 8 -40 11c-40 8 -26 71 14 62c16 -4 33 -7 50 -12c64 -21 115 -75 115 -145c0 -92 -91 -148 -173 -153c-102 -6 -212 63 -212 173c0 18 16 31 32 31h50c40 0 40 -64 0 -64h-11v0z
M206 258l-12 3c-32 9 -63 23 -86 46c-24 23 -39 57 -39 93c0 57 36 100 83 122c39 18 85 20 124 13c74 -14 140 -73 140 -153c0 -16 -14 -28 -30 -28h-35v0v0v0v0v0v0v0v0v0v0v0v0v0v0v0h-14c-41 0 -41 63 0 63h12c-15 35 -50 57 -87 64c-51 9 -133 -17 -133 -81
c0 -45 42 -69 81 -78l9 -3c-14 -15 -20 -38 -13 -61v0z" />
    <glyph glyph-name="x" unicode="x" horiz-adv-x="529" 
d="M447 461l-133 -185c-31 9 -67 -8 -77 -42c-6 -18 -2 -37 9 -52l-86 -119v0c41 0 41 -63 0 -63h-79c-41 0 -41 63 0 63h1l144 199l-144 199h-1c-41 0 -41 64 0 64h79c41 0 41 -64 0 -64v0l105 -145l104 145v0c-40 0 -40 64 0 64h80c40 0 40 -64 0 -64h-2v0zM449 0h-80
c-40 0 -40 63 0 63l-98 136c-24 33 27 71 51 38l126 -174h1c40 0 40 -63 0 -63v0z" />
    <glyph glyph-name="z" unicode="z" horiz-adv-x="538" 
d="M476 468l-163 -202c-9 22 -29 37 -50 40l126 155h-276v-13c0 -40 -63 -40 -63 0v45c0 16 10 32 30 32h376c20 0 35 -20 31 -39c-2 -7 -7 -13 -11 -18v0zM280 226v0l-131 -163h275v14c0 40 63 40 63 0v-45c0 -16 -10 -32 -30 -32h-376c-20 0 -35 20 -30 39c2 7 7 12 11 18
l170 209c25 32 74 -9 48 -40z" />
    <glyph glyph-name="w" unicode="w" horiz-adv-x="971" 
d="M636 108l181 353h-6c-40 0 -40 64 0 64h80c40 0 40 -64 0 -64h-6l-203 -398c34 -7 31 -63 -7 -63h-79c-38 0 -41 56 -7 63l-87 194l33 74l101 -223v0zM336 108v0l122 271c9 18 27 20 41 13c15 -7 22 -22 13 -40l-129 -289c33 -7 31 -63 -7 -63h-80c-38 0 -40 56 -7 63
l-203 398h-5c-41 0 -41 64 0 64h79c41 0 41 -64 0 -64h-5z" />
    <glyph glyph-name="m" unicode="m" horiz-adv-x="982" 
d="M94 461h-14c-40 0 -40 64 0 64h53c13 0 24 -11 24 -25v-3c-10 -8 -20 -17 -29 -26c-37 -34 -15 -91 31 -100c3 -1 7 -1 10 -1c-8 -19 -12 -39 -12 -60v-247h8c40 0 40 -63 0 -63h-80c-40 0 -40 63 0 63h9v398v0zM190 406c-26 -26 -67 11 -49 38c4 8 12 15 19 21
c12 11 28 23 45 32c82 46 188 33 257 -35c12 -13 23 -26 31 -41c9 15 20 28 32 41c84 83 220 83 304 0c41 -41 64 -96 64 -154v-245h8c41 0 41 -63 0 -63h-79c-41 0 -41 63 0 63h8v247c0 39 -15 78 -45 107c-59 60 -156 60 -216 0c-26 -26 -44 -64 -44 -102v-252h8
c41 0 41 -63 0 -63h-79c-41 0 -41 63 0 63h8v252c0 38 -18 76 -45 102c-49 50 -124 58 -182 26c-17 -10 -31 -23 -45 -37v0z" />
    <glyph glyph-name="t" unicode="t" horiz-adv-x="371" 
d="M89 669v0h-8c-41 0 -41 64 0 64h79c41 0 41 -64 0 -64h-8v-118c-11 -4 -21 -11 -28 -22c-22 -33 -8 -79 28 -92v-216c0 -43 8 -82 44 -117c24 -23 60 -41 95 -41c40 0 40 -63 0 -63c-49 0 -103 26 -138 59c-46 44 -64 101 -64 161v449zM173 525v0h60c21 0 31 -16 31 -32
s-10 -32 -31 -32h-60c-41 0 -41 64 0 64z" />
    <glyph glyph-name="k" unicode="k" horiz-adv-x="553" 
d="M94 670h-13c-41 0 -41 63 0 63h52c13 0 24 -11 24 -24v-443l211 195h-2c-40 0 -41 64 0 64h80c9 0 18 -5 24 -11c11 -12 15 -31 0 -44l-164 -152c-31 14 -71 -3 -83 -38c-4 -13 -4 -26 1 -38l-64 -60c-1 -1 -2 -1 -3 -2v-117h8c41 0 41 -63 0 -63h-79c-41 0 -41 63 0 63
h8v607v0zM473 0h-80c-40 0 -40 62 0 63c-46 60 -91 121 -137 180c-25 32 25 71 50 39c56 -72 111 -146 166 -219h1c40 0 40 -63 0 -63v0z" />
    <glyph glyph-name="d" unicode="d" horiz-adv-x="677" 
d="M544 0v0c-13 0 -24 11 -24 24v19l34 41c32 39 3 94 -44 98h-5c30 74 15 162 -44 221c-80 80 -209 80 -288 0c-80 -79 -80 -208 0 -288c70 -70 180 -78 259 -23c20 13 36 30 51 49c25 32 74 -7 49 -39c-21 -25 -41 -46 -68 -64c-104 -69 -245 -58 -336 33
c-103 104 -103 273 0 377c104 103 273 103 377 0c5 -6 10 -11 15 -17v278c0 13 11 24 24 24h53c40 0 40 -63 0 -63h-14v-607h14c40 0 40 -63 0 -63h-53z" />
    <glyph glyph-name="b" unicode="b" horiz-adv-x="677" 
d="M133 0h-52c-41 0 -41 63 0 63h13v607h-13c-41 0 -41 63 0 63h52c14 0 24 -11 24 -24v-278c5 6 10 11 16 17c104 103 272 103 376 0c104 -104 104 -273 0 -377c-91 -91 -232 -102 -335 -33c-28 18 -48 39 -68 64c-25 32 24 71 49 39c15 -19 31 -36 51 -49
c79 -55 188 -47 259 23c80 80 80 209 0 288c-79 80 -208 80 -288 0c-59 -59 -74 -147 -44 -221h-6c-47 -4 -75 -59 -44 -98l34 -41v-19c0 -13 -10 -24 -24 -24v0z" />
    <glyph glyph-name="l" unicode="l" horiz-adv-x="371" 
d="M89 669v0h-8c-41 0 -41 64 0 64h79c41 0 41 -64 0 -64h-8v-448c0 -43 8 -82 44 -117c24 -23 60 -41 95 -41c40 0 40 -63 0 -63c-49 0 -103 26 -138 59c-46 44 -64 101 -64 161v449z" />
    <glyph glyph-name="a" unicode="a" 
d="M571 0v0c-13 0 -24 11 -24 24v19l34 41c32 39 3 94 -44 98h-5c30 74 15 162 -44 221c-80 80 -209 80 -288 0c-80 -79 -80 -208 0 -288c70 -70 180 -78 259 -23c20 13 36 30 51 49c25 32 74 -7 49 -39c-21 -25 -41 -46 -68 -64c-104 -69 -245 -58 -336 33
c-103 104 -103 273 0 377c104 103 273 103 377 0c5 -6 10 -11 15 -17v69c0 14 11 25 24 25h53c40 0 40 -64 0 -64h-14v-398h14c40 0 40 -63 0 -63h-53z" />
    <glyph glyph-name="q" unicode="q" horiz-adv-x="677" 
d="M544 525h53c40 0 40 -64 0 -64h-14v-638h14c40 0 40 -64 0 -64h-53c-13 0 -24 11 -24 25v266l31 37c12 15 16 34 11 53c-9 27 -34 43 -59 43c32 74 18 165 -42 226c-80 80 -209 80 -288 0c-80 -79 -80 -208 0 -288c72 -73 187 -79 267 -18c16 12 28 26 41 41
c25 31 74 -9 48 -40c-19 -24 -41 -45 -67 -62c-103 -67 -243 -55 -334 35c-103 104 -103 273 0 376c104 104 273 104 377 0c5 -5 10 -11 15 -17v64c0 14 11 25 24 25v0z" />
    <glyph glyph-name="g" unicode="g" horiz-adv-x="677" 
d="M474 131c25 32 74 -7 49 -39c-15 -19 -32 -35 -51 -49c-104 -75 -250 -65 -344 28c-103 104 -103 273 0 377c104 103 273 103 377 0c5 -6 10 -11 15 -17v69c0 14 11 25 24 25h53c40 0 40 -64 0 -64h-14v-415c0 -79 -20 -151 -78 -209c-95 -95 -242 -104 -347 -20
c-12 9 -15 27 -7 40l22 40c19 35 75 5 55 -30l-9 -17c79 -46 177 -33 242 31c45 46 59 101 59 161l26 32c31 39 3 94 -45 98h-1c36 75 23 169 -39 231c-80 80 -209 80 -288 0c-80 -79 -80 -208 0 -288c71 -71 182 -78 261 -22c15 11 29 23 40 38v0z" />
    <glyph glyph-name="r" unicode="r" horiz-adv-x="473" 
d="M133 525v0c13 0 24 -11 24 -25v-31l-25 -25c-34 -34 -14 -89 31 -99c4 -1 9 -2 13 -2c-14 -31 -19 -66 -19 -101v-218c0 -13 -11 -24 -24 -24h-52c-41 0 -41 63 0 63h13v398h-13c-41 0 -41 64 0 64h52zM196 380v0c13 13 23 26 37 37c37 30 82 45 127 45v-13
c0 -40 63 -40 63 0v45c0 21 -16 31 -33 30h-27c-63 0 -123 -20 -171 -60c-15 -12 -27 -27 -40 -40c-29 -28 15 -73 44 -44z" />
    <glyph glyph-name="h" unicode="h" horiz-adv-x="660" 
d="M93 670h-13c-40 0 -40 63 0 63h52c14 0 25 -11 25 -24v-219l-23 -24c-35 -35 -13 -93 33 -102c2 0 5 -1 7 -1c-13 -28 -17 -59 -17 -94v-206h8c40 0 40 -63 0 -63h-80c-40 0 -40 63 0 63h8v607v0zM199 401c-29 -28 -74 17 -44 45c20 19 36 35 61 48c91 51 208 38 286 -39
c52 -53 69 -118 69 -189v-203h9c40 0 40 -63 0 -63h-80c-40 0 -40 63 0 63h8v203c0 54 -10 104 -51 144c-57 58 -143 67 -211 30c-18 -10 -33 -24 -47 -39v0z" />
    <glyph glyph-name="n" unicode="n" horiz-adv-x="660" 
d="M93 461h-13c-40 0 -40 64 0 64h52c14 0 25 -11 25 -25v-15c-7 -6 -13 -12 -19 -18c-8 -8 -16 -17 -22 -28c-22 -41 15 -84 54 -85c-10 -26 -13 -54 -13 -85v-206h8c40 0 40 -63 0 -63h-80c-40 0 -40 63 0 63h8v398v0zM286 520c76 15 157 -7 216 -65
c52 -53 69 -118 69 -189v-203h9c40 0 40 -63 0 -63h-80c-40 0 -40 63 0 63h8v203c0 54 -10 104 -51 144c-43 43 -102 60 -158 49c-44 -8 -78 -34 -107 -67c-24 -28 -67 6 -52 35c5 7 12 15 18 21c34 35 80 63 128 72v0z" />
    <glyph glyph-name="p" unicode="p" horiz-adv-x="677" 
d="M133 525v0c14 0 24 -11 24 -25v-64c5 6 10 12 16 17c104 104 272 104 376 0c104 -103 104 -272 0 -376c-90 -90 -230 -102 -333 -35c-26 17 -48 38 -68 62c-26 31 23 71 49 40c12 -15 25 -29 41 -41c80 -61 194 -55 267 18c80 80 80 209 0 288c-79 80 -208 80 -288 0
c-61 -61 -75 -152 -42 -226c-25 0 -50 -16 -59 -43c-6 -19 -1 -38 11 -53l30 -37v-266c0 -14 -10 -25 -24 -25h-52c-41 0 -41 64 0 64h13v638h-13c-41 0 -41 64 0 64h52z" />
    <glyph glyph-name="o" unicode="o" horiz-adv-x="667" 
d="M522 450c48 -47 77 -115 77 -183c0 -40 -62 -40 -62 0c0 52 -23 103 -59 139c-79 79 -209 79 -288 0s-79 -209 0 -288s209 -79 288 0c28 28 46 63 54 100c20 -13 44 -13 63 -3c-9 -52 -33 -101 -73 -141c-103 -103 -273 -103 -376 0s-103 273 0 376
c103 104 273 104 376 0v0z" />
    <glyph glyph-name="e" unicode="e" horiz-adv-x="687" 
d="M449 84l-9 15c-20 35 34 67 55 32l22 -37c9 -13 7 -32 -6 -43c-103 -82 -258 -76 -354 20c-104 104 -104 273 0 377c103 103 272 103 376 0c47 -47 76 -111 78 -182c0 -10 0 -18 -8 -27c-5 -7 -14 -11 -23 -11h-418c-40 0 -40 63 0 63h384c-7 43 -27 82 -57 112
c-80 80 -209 80 -288 0c-24 -23 -41 -52 -51 -85c-42 -8 -61 -58 -37 -94c9 -13 22 -22 37 -24c10 -33 28 -61 51 -85c66 -65 170 -77 248 -31v0z" />
    <glyph glyph-name="c" unicode="c" horiz-adv-x="570" 
d="M509 125c14 -12 14 -32 2 -45c-13 -15 -29 -28 -45 -39c-105 -73 -248 -61 -339 30c-42 42 -77 108 -77 168c0 41 63 41 63 0c0 -45 27 -93 58 -124c69 -69 179 -79 260 -23c12 9 24 19 34 30c11 13 32 14 44 3v0zM51 290c6 58 32 114 76 158c96 96 251 102 354 20
c12 -10 15 -28 7 -41l-22 -40c-19 -35 -75 -5 -55 31l9 16c-78 46 -182 37 -249 -31c-32 -31 -51 -71 -58 -113c-18 11 -42 12 -62 0v0z" />
    <glyph glyph-name="u" unicode="u" horiz-adv-x="650" 
d="M561 63h14c40 0 40 -63 0 -63h-53c-13 0 -24 11 -24 24v16c6 6 12 11 18 17c8 9 17 18 22 28c22 42 -14 85 -53 85c10 26 13 55 13 85v206h-8c-41 0 -41 64 0 64h79c41 0 41 -64 0 -64h-8v-398v0zM368 5c-75 -15 -157 7 -215 65c-53 53 -70 118 -70 189v202h-8
c-40 0 -40 64 0 64h80c40 0 40 -64 0 -64h-9v-202c0 -54 10 -104 51 -145c43 -43 103 -59 159 -48c43 8 78 34 106 66c25 28 67 -5 52 -34c-4 -8 -12 -16 -18 -22c-33 -35 -80 -62 -128 -71v0z" />
    <glyph glyph-name="i" unicode="i" horiz-adv-x="244" 
d="M81 462c-40 0 -40 63 0 63h41c16 0 31 -11 31 -31v-431h9c40 0 40 -63 0 -63h-80c-40 0 -40 63 0 63h8v399h-9zM119 733c25 0 47 -22 47 -47c0 -26 -22 -48 -47 -48c-27 0 -47 22 -47 48c0 25 20 47 47 47z" />
    <glyph glyph-name="y" unicode="y" horiz-adv-x="633" 
d="M134 461v0l182 -352c20 -36 -36 -65 -55 -29l-195 381h-5c-41 0 -41 64 0 64h79c41 0 41 -64 0 -64h-6zM278 33v0c24 -3 50 9 63 34c10 17 9 37 -1 55l-8 17l165 322h-5c-41 0 -41 64 0 64h79c41 0 41 -64 0 -64h-6l-350 -686c-6 -13 -18 -17 -30 -16h-29
c-40 0 -40 64 0 64h14z" />
    <glyph glyph-name="v" unicode="v" horiz-adv-x="682" 
d="M596 461v0l-205 -400l-35 67l172 333h-6c-40 0 -40 64 0 64h80c40 0 40 -64 0 -64h-6zM313 16v0c9 -17 28 -19 42 -12c13 7 22 23 13 41l-214 416h6c40 0 40 64 0 64h-80c-40 0 -40 -64 0 -64h6z" />
    <glyph glyph-name="j" unicode="j" horiz-adv-x="236" 
d="M178 -21c0 -59 -18 -117 -64 -160c-35 -34 -89 -60 -138 -60c-40 0 -40 64 0 64c35 0 71 18 95 41c36 34 44 74 44 116v481h-13c-41 0 -41 63 0 63h43c16 1 33 -9 33 -30v-515v0zM146 733c22 0 40 -18 40 -39c0 -22 -18 -40 -40 -40c-21 0 -39 18 -39 40
c0 21 18 39 39 39v0z" />
    <glyph glyph-name="f" unicode="f" horiz-adv-x="371" 
d="M291 733c40 0 40 -64 0 -64c-35 0 -71 -17 -95 -41c-25 -23 -36 -49 -41 -77c-37 -13 -52 -59 -30 -93c7 -10 16 -18 27 -22v-373h8c41 0 41 -63 0 -63h-79c-41 0 -41 63 0 63h8v450c0 60 18 117 64 160c35 34 89 60 138 60zM215 525c21 0 31 -16 31 -32s-10 -32 -31 -32
h-59c-40 0 -40 64 0 64h59z" />
    <glyph glyph-name="dieresis" unicode="&#xa8;" horiz-adv-x="377" 
d="M136 630c0 -23 -19 -43 -43 -43s-43 20 -43 43c0 24 19 44 43 44s43 -20 43 -44v0zM327 630c0 -23 -19 -43 -43 -43s-43 20 -43 43c0 24 19 44 43 44s43 -20 43 -44v0z" />
    <glyph glyph-name="tilde" unicode="&#x2dc;" horiz-adv-x="318" 
d="M105 660c-7 -13 -21 -19 -34 -15s-21 16 -20 29c0 10 7 21 13 30c26 34 78 37 108 7c6 -6 9 -13 14 -19c7 -6 18 -6 24 2c2 3 4 8 6 12c7 11 20 15 32 11c12 -3 20 -15 20 -27c0 -11 -7 -22 -13 -31c-27 -34 -78 -38 -109 -7c-5 6 -8 13 -14 19c-5 5 -13 6 -19 2
c-5 -3 -6 -8 -8 -13v0z" />
    <glyph glyph-name="circumflex" unicode="&#x2c6;" horiz-adv-x="268" 
d="M134 664l-36 -36c-12 -13 -28 -10 -38 0s-14 27 -1 39l56 56c11 11 28 11 39 0l56 -56c12 -12 9 -29 -1 -39s-26 -13 -39 0l-36 36v0z" />
    <glyph glyph-name="acute" unicode="&#xb4;" horiz-adv-x="238" 
d="M92 631v0c-15 -9 -30 -2 -37 10s-6 29 10 38l81 47c16 9 30 2 37 -11c7 -12 7 -28 -9 -37z" />
    <glyph glyph-name="grave" unicode="`" horiz-adv-x="238" 
d="M146 631l-81 47c-16 9 -17 25 -10 37c7 13 22 20 37 11l82 -47c16 -9 16 -26 9 -38s-21 -19 -37 -10v0z" />
    <glyph glyph-name="agrave" unicode="&#xe0;" 
d="M562 0v0c-13 0 -24 11 -24 24v19l34 41c32 39 3 94 -44 98h-5c30 74 15 162 -44 221c-80 80 -209 80 -288 0c-80 -79 -80 -208 0 -288c70 -70 180 -78 259 -23c20 13 36 30 51 49c25 32 74 -7 49 -39c-21 -25 -41 -46 -68 -64c-104 -69 -245 -58 -336 33
c-103 104 -103 273 0 377c104 103 273 103 377 0c5 -6 10 -11 15 -17v69c0 14 11 25 24 25h53c40 0 40 -64 0 -64h-14v-398h14c40 0 40 -63 0 -63h-53zM383 631l-81 47c-16 9 -17 25 -10 37c7 13 22 20 37 11l82 -47c16 -9 16 -26 9 -38s-21 -19 -37 -10v0z" />
    <glyph glyph-name="aacute" unicode="&#xe1;" 
d="M562 0v0c-13 0 -24 11 -24 24v19l34 41c32 39 3 94 -44 98h-5c30 74 15 162 -44 221c-80 80 -209 80 -288 0c-80 -79 -80 -208 0 -288c70 -70 180 -78 259 -23c20 13 36 30 51 49c25 32 74 -7 49 -39c-21 -25 -41 -46 -68 -64c-104 -69 -245 -58 -336 33
c-103 104 -103 273 0 377c104 103 273 103 377 0c5 -6 10 -11 15 -17v69c0 14 11 25 24 25h53c40 0 40 -64 0 -64h-14v-398h14c40 0 40 -63 0 -63h-53zM316 631v0c-15 -9 -30 -2 -37 10s-6 29 10 38l81 47c16 9 30 2 37 -11c7 -12 7 -28 -9 -37z" />
    <glyph glyph-name="acircumflex" unicode="&#xe2;" 
d="M562 0v0c-13 0 -24 11 -24 24v19l34 41c32 39 3 94 -44 98h-5c30 74 15 162 -44 221c-80 80 -209 80 -288 0c-80 -79 -80 -208 0 -288c70 -70 180 -78 259 -23c20 13 36 30 51 49c25 32 74 -7 49 -39c-21 -25 -41 -46 -68 -64c-104 -69 -245 -58 -336 33
c-103 104 -103 273 0 377c104 103 273 103 377 0c5 -6 10 -11 15 -17v69c0 14 11 25 24 25h53c40 0 40 -64 0 -64h-14v-398h14c40 0 40 -63 0 -63h-53zM342 664l-36 -36c-12 -13 -28 -10 -38 0s-14 27 -1 39l56 56c11 11 28 11 39 0l56 -56c12 -12 9 -29 -1 -39
s-26 -13 -39 0l-36 36v0z" />
    <glyph glyph-name="atilde" unicode="&#xe3;" 
d="M562 0v0c-13 0 -24 11 -24 24v19l34 41c32 39 3 94 -44 98h-5c30 74 15 162 -44 221c-80 80 -209 80 -288 0c-80 -79 -80 -208 0 -288c70 -70 180 -78 259 -23c20 13 36 30 51 49c25 32 74 -7 49 -39c-21 -25 -41 -46 -68 -64c-104 -69 -245 -58 -336 33
c-103 104 -103 273 0 377c104 103 273 103 377 0c5 -6 10 -11 15 -17v69c0 14 11 25 24 25h53c40 0 40 -64 0 -64h-14v-398h14c40 0 40 -63 0 -63h-53zM290 660c-7 -13 -21 -19 -34 -15s-21 16 -20 29c0 10 7 21 13 30c26 34 78 37 108 7c6 -6 9 -13 14 -19c7 -6 18 -6 24 2
c2 3 4 8 6 12c7 11 20 15 32 11c12 -3 20 -15 20 -27c0 -11 -7 -22 -13 -31c-27 -34 -78 -38 -109 -7c-5 6 -8 13 -14 19c-5 5 -13 6 -19 2c-5 -3 -6 -8 -8 -13v0z" />
    <glyph glyph-name="adieresis" unicode="&#xe4;" 
d="M562 0v0c-13 0 -24 11 -24 24v19l34 41c32 39 3 94 -44 98h-5c30 74 15 162 -44 221c-80 80 -209 80 -288 0c-80 -79 -80 -208 0 -288c70 -70 180 -78 259 -23c20 13 36 30 51 49c25 32 74 -7 49 -39c-21 -25 -41 -46 -68 -64c-104 -69 -245 -58 -336 33
c-103 104 -103 273 0 377c104 103 273 103 377 0c5 -6 10 -11 15 -17v69c0 14 11 25 24 25h53c40 0 40 -64 0 -64h-14v-398h14c40 0 40 -63 0 -63h-53zM286 630c0 -23 -19 -43 -43 -43s-43 20 -43 43c0 24 19 44 43 44s43 -20 43 -44v0zM477 630c0 -23 -19 -43 -43 -43
s-43 20 -43 43c0 24 19 44 43 44s43 -20 43 -44v0z" />
    <glyph glyph-name="aring" unicode="&#xe5;" 
d="M562 0v0c-13 0 -24 11 -24 24v19l34 41c32 39 3 94 -44 98h-5c30 74 15 162 -44 221c-80 80 -209 80 -288 0c-80 -79 -80 -208 0 -288c70 -70 180 -78 259 -23c20 13 36 30 51 49c25 32 74 -7 49 -39c-21 -25 -41 -46 -68 -64c-104 -69 -245 -58 -336 33
c-103 104 -103 273 0 377c104 103 273 103 377 0c5 -6 10 -11 15 -17v69c0 14 11 25 24 25h53c40 0 40 -64 0 -64h-14v-398h14c40 0 40 -63 0 -63h-53zM404 682c8 -25 3 -53 -17 -73c-28 -28 -73 -28 -101 0c-18 18 -24 44 -19 67c8 32 37 55 71 55c30 -1 57 -20 66 -49v0z
M320 643c9 -9 24 -9 33 0c15 15 4 40 -16 40s-33 -25 -17 -40v0z" />
    <glyph glyph-name="ae" unicode="&#xe6;" horiz-adv-x="1553" 
 />
    <glyph glyph-name="egrave" unicode="&#xe8;" horiz-adv-x="632" 
d="M417 84l-9 15c-20 35 34 67 55 32l22 -37c9 -13 7 -32 -6 -43c-103 -82 -258 -76 -354 20c-104 104 -104 273 0 377c103 103 272 103 376 0c47 -47 76 -111 78 -182c0 -10 0 -18 -8 -27c-5 -7 -14 -11 -23 -11h-418c-40 0 -40 63 0 63h384c-7 43 -27 82 -57 112
c-80 80 -209 80 -288 0c-24 -23 -41 -52 -51 -85c-42 -8 -61 -58 -37 -94c9 -13 22 -22 37 -24c10 -33 28 -61 51 -85c66 -65 170 -77 248 -31v0zM338 631l-81 47c-16 9 -17 25 -10 37c7 13 22 20 37 11l82 -47c16 -9 16 -26 9 -38s-21 -19 -37 -10v0z" />
    <glyph glyph-name="eacute" unicode="&#xe9;" horiz-adv-x="632" 
d="M417 84v0c-78 -46 -182 -34 -248 31c-23 24 -41 52 -51 85c-15 2 -28 11 -37 24c-24 36 -5 86 37 94c10 33 27 62 51 85c79 80 208 80 288 0c30 -30 50 -69 57 -112h-384c-40 0 -40 -63 0 -63h418c9 0 18 4 23 11c8 9 8 17 8 27c-2 71 -31 135 -78 182
c-104 103 -273 103 -376 0c-104 -104 -104 -273 0 -377c96 -96 251 -102 354 -20c13 11 15 30 6 43l-22 37c-21 35 -75 3 -55 -32zM287 631v0c-15 -9 -30 -2 -37 10s-6 29 10 38l81 47c16 9 30 2 37 -11c7 -12 7 -28 -9 -37z" />
    <glyph glyph-name="ecircumflex" unicode="&#xea;" horiz-adv-x="632" 
d="M424 84l-9 15c-20 35 34 67 55 32l22 -37c9 -13 7 -32 -6 -43c-103 -82 -258 -76 -354 20c-104 104 -104 273 0 377c103 103 272 103 376 0c47 -47 76 -111 78 -182c0 -10 0 -18 -8 -27c-5 -7 -14 -11 -23 -11h-418c-40 0 -40 63 0 63h384c-7 43 -27 82 -57 112
c-80 80 -209 80 -288 0c-24 -23 -41 -52 -51 -85c-42 -8 -61 -58 -37 -94c9 -13 22 -22 37 -24c10 -33 28 -61 51 -85c66 -65 170 -77 248 -31v0zM321 664l-36 -36c-12 -13 -28 -10 -38 0s-14 27 -1 39l56 56c11 11 28 11 39 0l56 -56c12 -12 9 -29 -1 -39s-26 -13 -39 0z
" />
    <glyph glyph-name="edieresis" unicode="&#xeb;" horiz-adv-x="632" 
d="M424 84l-9 15c-20 35 34 67 55 32l22 -37c9 -13 7 -32 -6 -43c-103 -82 -258 -76 -354 20c-104 104 -104 273 0 377c103 103 272 103 376 0c47 -47 76 -111 78 -182c0 -10 0 -18 -8 -27c-5 -7 -14 -11 -23 -11h-418c-40 0 -40 63 0 63h384c-7 43 -27 82 -57 112
c-80 80 -209 80 -288 0c-24 -23 -41 -52 -51 -85c-42 -8 -61 -58 -37 -94c9 -13 22 -22 37 -24c10 -33 28 -61 51 -85c66 -65 170 -77 248 -31v0zM270 630c0 -23 -19 -43 -43 -43s-43 20 -43 43c0 24 19 44 43 44s43 -20 43 -44v0zM461 630c0 -23 -19 -43 -43 -43
s-43 20 -43 43c0 24 19 44 43 44s43 -20 43 -44v0z" />
    <glyph glyph-name="igrave" unicode="&#xec;" horiz-adv-x="244" 
d="M144 631l-81 47c-16 9 -17 25 -10 37c7 13 22 20 37 11l82 -47c16 -9 16 -26 9 -38s-21 -19 -37 -10v0zM85 462c-40 0 -40 63 0 63h41c16 0 31 -11 31 -31v-431h9c40 0 40 -63 0 -63h-80c-40 0 -40 63 0 63h8v399h-9z" />
    <glyph glyph-name="iacute" unicode="&#xed;" horiz-adv-x="244" 
d="M86 631v0c-15 -9 -30 -2 -37 10s-6 29 10 38l81 47c16 9 30 2 37 -11c7 -12 7 -28 -9 -37zM88 462c-40 0 -40 63 0 63h41c16 0 31 -11 31 -31v-431h9c40 0 40 -63 0 -63h-80c-40 0 -40 63 0 63h8v399h-9z" />
    <glyph glyph-name="icircumflex" unicode="&#xee;" horiz-adv-x="244" 
d="M122 664l-36 -36c-12 -13 -28 -10 -38 0s-14 27 -1 39l56 56c11 11 28 11 39 0l56 -56c12 -12 9 -29 -1 -39s-26 -13 -39 0l-36 36v0zM85 462c-40 0 -40 63 0 63h41c16 0 31 -11 31 -31v-431h9c40 0 40 -63 0 -63h-80c-40 0 -40 63 0 63h8v399h-9z" />
    <glyph glyph-name="idieresis" unicode="&#xef;" horiz-adv-x="244" 
d="M81 630c0 -23 -19 -43 -43 -43s-43 20 -43 43c0 24 19 44 43 44s43 -20 43 -44v0zM249 630c0 -23 -19 -43 -43 -43s-43 20 -43 43c0 24 19 44 43 44s43 -20 43 -44v0zM92 462c-40 0 -40 63 0 63h41c16 0 31 -11 31 -31v-431h9c40 0 40 -63 0 -63h-80c-40 0 -40 63 0 63h8
v399h-9z" />
    <glyph glyph-name="ntilde" unicode="&#xf1;" horiz-adv-x="660" 
d="M93 461h-13c-40 0 -40 64 0 64h52c14 0 25 -11 25 -25v-15c-7 -6 -13 -12 -19 -18c-8 -8 -16 -17 -22 -28c-22 -41 15 -84 54 -85c-10 -26 -13 -54 -13 -85v-206h8c40 0 40 -63 0 -63h-80c-40 0 -40 63 0 63h8v398v0zM286 520c76 15 157 -7 216 -65
c52 -53 69 -118 69 -189v-203h9c40 0 40 -63 0 -63h-80c-40 0 -40 63 0 63h8v203c0 54 -10 104 -51 144c-43 43 -102 60 -158 49c-44 -8 -78 -34 -107 -67c-24 -28 -67 6 -52 35c5 7 12 15 18 21c34 35 80 63 128 72v0zM284 660c-7 -13 -21 -19 -34 -15s-21 16 -20 29
c0 10 7 21 13 30c26 34 78 37 108 7c6 -6 9 -13 14 -19c7 -6 18 -6 24 2c2 3 4 8 6 12c7 11 20 15 32 11c12 -3 20 -15 20 -27c0 -11 -7 -22 -13 -31c-27 -34 -78 -38 -109 -7c-5 6 -8 13 -14 19c-5 5 -13 6 -19 2c-5 -3 -6 -8 -8 -13v0z" />
    <glyph glyph-name="ograve" unicode="&#xf2;" horiz-adv-x="667" 
d="M365 631l-81 47c-16 9 -17 25 -10 37c7 13 22 20 37 11l82 -47c16 -9 16 -26 9 -38s-21 -19 -37 -10v0zM522 450c48 -47 77 -115 77 -183c0 -40 -62 -40 -62 0c0 52 -23 103 -59 139c-79 79 -209 79 -288 0s-79 -209 0 -288s209 -79 288 0c28 28 46 63 54 100
c20 -13 44 -13 63 -3c-9 -52 -33 -101 -73 -141c-103 -103 -273 -103 -376 0s-103 273 0 376c103 104 273 104 376 0v0z" />
    <glyph glyph-name="oacute" unicode="&#xf3;" horiz-adv-x="667" 
d="M320 631v0c-15 -9 -30 -2 -37 10s-6 29 10 38l81 47c16 9 30 2 37 -11c7 -12 7 -28 -9 -37zM522 450v0c-103 104 -273 104 -376 0c-103 -103 -103 -273 0 -376s273 -103 376 0c40 40 64 89 73 141c-19 -10 -43 -10 -63 3c-8 -37 -26 -72 -54 -100
c-79 -79 -209 -79 -288 0s-79 209 0 288s209 79 288 0c36 -36 59 -87 59 -139c0 -40 62 -40 62 0c0 68 -29 136 -77 183z" />
    <glyph glyph-name="ocircumflex" unicode="&#xf4;" horiz-adv-x="667" 
d="M522 450c48 -47 77 -115 77 -183c0 -40 -62 -40 -62 0c0 52 -23 103 -59 139c-79 79 -209 79 -288 0s-79 -209 0 -288s209 -79 288 0c28 28 46 63 54 100c20 -13 44 -13 63 -3c-9 -52 -33 -101 -73 -141c-103 -103 -273 -103 -376 0s-103 273 0 376
c103 104 273 104 376 0v0zM329 664l-36 -36c-12 -13 -28 -10 -38 0s-14 27 -1 39l56 56c11 11 28 11 39 0l56 -56c12 -12 9 -29 -1 -39s-26 -13 -39 0l-36 36v0z" />
    <glyph glyph-name="otilde" unicode="&#xf5;" horiz-adv-x="667" 
d="M522 450c48 -47 77 -115 77 -183c0 -40 -62 -40 -62 0c0 52 -23 103 -59 139c-79 79 -209 79 -288 0s-79 -209 0 -288s209 -79 288 0c28 28 46 63 54 100c20 -13 44 -13 63 -3c-9 -52 -33 -101 -73 -141c-103 -103 -273 -103 -376 0s-103 273 0 376
c103 104 273 104 376 0v0zM274 660c-7 -13 -21 -19 -34 -15s-21 16 -20 29c0 10 7 21 13 30c26 34 78 37 108 7c6 -6 9 -13 14 -19c7 -6 18 -6 24 2c2 3 4 8 6 12c7 11 20 15 32 11c12 -3 20 -15 20 -27c0 -11 -7 -22 -13 -31c-27 -34 -78 -38 -109 -7c-5 6 -8 13 -14 19
c-5 5 -13 6 -19 2c-5 -3 -6 -8 -8 -13v0z" />
    <glyph glyph-name="odieresis" unicode="&#xf6;" horiz-adv-x="667" 
d="M522 450c48 -47 77 -115 77 -183c0 -40 -62 -40 -62 0c0 52 -23 103 -59 139c-79 79 -209 79 -288 0s-79 -209 0 -288s209 -79 288 0c28 28 46 63 54 100c20 -13 44 -13 63 -3c-9 -52 -33 -101 -73 -141c-103 -103 -273 -103 -376 0s-103 273 0 376
c103 104 273 104 376 0v0zM282 630c0 -23 -19 -43 -43 -43s-43 20 -43 43c0 24 19 44 43 44s43 -20 43 -44v0zM473 630c0 -23 -19 -43 -43 -43s-43 20 -43 43c0 24 19 44 43 44s43 -20 43 -44v0z" />
    <glyph glyph-name="ugrave" unicode="&#xf9;" horiz-adv-x="650" 
d="M562 63h14c40 0 40 -63 0 -63h-53c-13 0 -24 11 -24 24v16c6 6 12 11 18 17c8 9 17 18 22 28c22 42 -14 85 -53 85c10 26 13 55 13 85v206h-8c-41 0 -41 64 0 64h79c41 0 41 -64 0 -64h-8v-398v0zM369 5c-75 -15 -157 7 -215 65c-53 53 -70 118 -70 189v202h-8
c-40 0 -40 64 0 64h80c40 0 40 -64 0 -64h-9v-202c0 -54 10 -104 51 -145c43 -43 103 -59 159 -48c43 8 78 34 106 66c25 28 67 -5 52 -34c-4 -8 -12 -16 -18 -22c-33 -35 -80 -62 -128 -71v0zM352 631l-81 47c-16 9 -17 25 -10 37c7 13 22 20 37 11l82 -47
c16 -9 16 -26 9 -38s-21 -19 -37 -10v0z" />
    <glyph glyph-name="uacute" unicode="&#xfa;" horiz-adv-x="650" 
d="M563 63v0v398h8c41 0 41 64 0 64h-79c-41 0 -41 -64 0 -64h8v-206c0 -30 -3 -59 -13 -85c39 0 75 -43 53 -85c-5 -10 -14 -19 -22 -28c-6 -6 -12 -11 -18 -17v-16c0 -13 11 -24 24 -24h53c40 0 40 63 0 63h-14zM370 5v0c48 9 95 36 128 71c6 6 14 14 18 22
c15 29 -27 62 -52 34c-28 -32 -63 -58 -106 -66c-56 -11 -116 5 -159 48c-41 41 -51 91 -51 145v202h9c40 0 40 64 0 64h-80c-40 0 -40 -64 0 -64h8v-202c0 -71 17 -136 70 -189c58 -58 140 -80 215 -65zM296 631v0c-15 -9 -30 -2 -37 10s-6 29 10 38l81 47
c16 9 30 2 37 -11c7 -12 7 -28 -9 -37z" />
    <glyph glyph-name="ucircumflex" unicode="&#xfb;" horiz-adv-x="650" 
d="M563 63h14c40 0 40 -63 0 -63h-53c-13 0 -24 11 -24 24v16c6 6 12 11 18 17c8 9 17 18 22 28c22 42 -14 85 -53 85c10 26 13 55 13 85v206h-8c-41 0 -41 64 0 64h79c41 0 41 -64 0 -64h-8v-398v0zM370 5c-75 -15 -157 7 -215 65c-53 53 -70 118 -70 189v202h-8
c-40 0 -40 64 0 64h80c40 0 40 -64 0 -64h-9v-202c0 -54 10 -104 51 -145c43 -43 103 -59 159 -48c43 8 78 34 106 66c25 28 67 -5 52 -34c-4 -8 -12 -16 -18 -22c-33 -35 -80 -62 -128 -71v0zM326 664l-36 -36c-12 -13 -28 -10 -38 0s-14 27 -1 39l56 56c11 11 28 11 39 0
l56 -56c12 -12 9 -29 -1 -39s-26 -13 -39 0l-36 36v0z" />
    <glyph glyph-name="udieresis" unicode="&#xfc;" horiz-adv-x="650" 
d="M563 63h14c40 0 40 -63 0 -63h-53c-13 0 -24 11 -24 24v16c6 6 12 11 18 17c8 9 17 18 22 28c22 42 -14 85 -53 85c10 26 13 55 13 85v206h-8c-41 0 -41 64 0 64h79c41 0 41 -64 0 -64h-8v-398v0zM370 5c-75 -15 -157 7 -215 65c-53 53 -70 118 -70 189v202h-8
c-40 0 -40 64 0 64h80c40 0 40 -64 0 -64h-9v-202c0 -54 10 -104 51 -145c43 -43 103 -59 159 -48c43 8 78 34 106 66c25 28 67 -5 52 -34c-4 -8 -12 -16 -18 -22c-33 -35 -80 -62 -128 -71v0zM271 630c0 -23 -19 -43 -43 -43s-43 20 -43 43c0 24 19 44 43 44s43 -20 43 -44
v0zM462 630c0 -23 -19 -43 -43 -43s-43 20 -43 43c0 24 19 44 43 44s43 -20 43 -44v0z" />
    <glyph glyph-name="yacute" unicode="&#xfd;" horiz-adv-x="633" 
d="M134 461v0l182 -352c20 -36 -36 -65 -55 -29l-195 381h-5c-41 0 -41 64 0 64h79c41 0 41 -64 0 -64h-6zM278 33v0c24 -3 50 9 63 34c10 17 9 37 -1 55l-8 17l165 322h-5c-41 0 -41 64 0 64h79c41 0 41 -64 0 -64h-6l-350 -686c-6 -13 -18 -17 -30 -16h-29
c-40 0 -40 64 0 64h14zM290 631v0c-15 -9 -30 -2 -37 10s-6 29 10 38l81 47c16 9 30 2 37 -11c7 -12 7 -28 -9 -37z" />
    <glyph glyph-name="ydieresis" unicode="&#xff;" horiz-adv-x="633" 
d="M134 461v0l182 -352c20 -36 -36 -65 -55 -29l-195 381h-5c-41 0 -41 64 0 64h79c41 0 41 -64 0 -64h-6zM278 33v0c24 -3 50 9 63 34c10 17 9 37 -1 55l-8 17l165 322h-5c-41 0 -41 64 0 64h79c41 0 41 -64 0 -64h-6l-350 -686c-6 -13 -18 -17 -30 -16h-29
c-40 0 -40 64 0 64h14zM263 630c0 -23 -19 -43 -43 -43s-43 20 -43 43c0 24 19 44 43 44s43 -20 43 -44v0zM454 630c0 -23 -19 -43 -43 -43s-43 20 -43 43c0 24 19 44 43 44s43 -20 43 -44v0z" />
    <glyph glyph-name="scaron" unicode="&#x161;" horiz-adv-x="485" 
d="M121 140v0h11c40 0 40 64 0 64h-50c-16 0 -32 -13 -32 -31c0 -110 110 -179 212 -173c82 5 173 61 173 153c0 70 -51 124 -115 145c-17 5 -34 8 -50 12c-40 9 -54 -54 -14 -62c13 -3 27 -7 40 -11c38 -14 74 -41 74 -84c0 -57 -63 -89 -113 -92c-55 -4 -116 25 -136 79z
M206 258v0c-7 23 -1 46 13 61l-9 3c-39 9 -81 33 -81 78c0 64 82 90 133 81c37 -7 72 -29 87 -64h-12c-41 0 -41 -63 0 -63h14v0v0v0v0v0v0v0v0v0v0v0v0v0v0v0h35c16 0 30 12 30 28c0 80 -66 139 -140 153c-39 7 -85 5 -124 -13c-47 -22 -83 -65 -83 -122
c0 -36 15 -70 39 -93c23 -23 54 -37 86 -46zM251 686v0l36 36c13 13 29 9 39 0c10 -10 13 -27 1 -39l-56 -56c-11 -11 -28 -11 -39 0l-56 56c-13 12 -9 29 1 39c10 9 26 13 38 0z" />
    <glyph glyph-name="exclamdown" unicode="&#xa1;" horiz-adv-x="164" 
d="M48 703c0 20 16 30 32 30c15 0 31 -10 31 -30v-77c0 -20 -16 -31 -31 -31c-16 0 -32 11 -32 31v77zM48 31v477c0 41 64 39 63 -1v-476c0 -20 -16 -31 -31 -31c-16 0 -32 11 -32 31z" />
    <glyph glyph-name="quotedbl" unicode="&#x22;" horiz-adv-x="305" 
d="M164 605v98c0 21 16 31 31 31c16 0 32 -10 32 -31v-98c0 -20 -16 -30 -32 -30c-15 0 -31 10 -31 30v0zM75 605v98c0 21 16 31 32 31c15 0 31 -10 31 -31v-98c0 -20 -16 -30 -31 -30c-16 0 -32 10 -32 30v0z" />
    <glyph glyph-name="numbersign" unicode="#" horiz-adv-x="707" 
d="M367 669l-46 -174h109c41 0 41 -64 0 -64h-126l-35 -130h109c39 0 39 -63 0 -63h-126l-47 -175h3c40 0 40 -63 0 -63h-80c-40 0 -40 63 0 63h12l46 175h-105c-21 0 -31 16 -31 32s10 31 31 31h122l35 130h-105c-21 0 -31 16 -31 32c0 15 10 31 31 31h122l47 175h-4
c-41 0 -41 63 0 63h79c40 0 40 -63 0 -63h-10v0zM581 669h-14l-47 -175h106c21 0 31 -16 31 -31c0 -16 -10 -32 -31 -32h-122l-35 -130h105c21 0 31 -16 31 -31c0 -16 -10 -32 -31 -32h-122l-46 -175h6c40 0 40 -63 0 -63h-79c-41 0 -41 63 0 63h7l39 146c61 2 77 83 30 113
l21 80c23 0 41 12 51 29c17 28 9 67 -20 85l41 153v0c-41 0 -41 63 0 63h79c41 0 41 -63 0 -63v0z" />
    <glyph glyph-name="oe" unicode="&#x153;" horiz-adv-x="1509" 
 />
    <glyph glyph-name="W" unicode="W" horiz-adv-x="1003" 
d="M678 63l-159 230l32 46l6 9l150 -217l144 537h-7c-41 0 -41 64 0 64h79c40 0 40 -64 0 -64h-7l-162 -605h7c40 0 40 -63 0 -63h-80c-39 0 -40 59 -3 63v0zM160 668h-7l144 -537l182 264c12 16 32 12 44 1c11 -11 14 -28 2 -44l-199 -289c36 -4 35 -63 -4 -63h-79
c-41 0 -41 63 0 63h6l-162 605h-7c-40 0 -40 64 0 64h80c40 0 40 -64 0 -64v0z" />
    <glyph glyph-name="Euro" unicode="&#x20ac;" horiz-adv-x="576" 
d="M463 77c0 40 63 40 63 0v-45c0 -18 -13 -32 -31 -32h-173s-111 24 -150 62c-48 49 -63 111 -63 177v33h-29c-20 0 -30 16 -30 32s10 32 30 32h10c18 -26 56 -34 85 -15c6 4 11 9 14 15h217c20 0 31 -16 31 -32s-11 -32 -31 -32h-235v-33c0 -48 10 -97 46 -133
c27 -27 64 -43 105 -43h141v14zM495 732c18 0 31 -14 31 -32v-45c0 -40 -63 -40 -63 0v13h-141c-41 0 -78 -15 -105 -42c-36 -36 -46 -85 -46 -133v-33h235c20 0 31 -16 31 -32s-11 -32 -31 -32h-235v-26c0 -40 -62 -40 -62 0v26h-29c-20 0 -30 16 -30 32s10 32 30 32h29v33
c0 66 15 128 63 177c39 38 92 62 150 62h173z" />
    <glyph glyph-name="one" unicode="1" horiz-adv-x="323" 
d="M234 701v-638h8c41 0 41 -63 0 -63h-37h-3h-3h-36c-41 0 -41 63 0 63h8v552l-64 -76c-13 -15 -32 -13 -44 -2c-12 10 -18 28 -5 43l116 137c8 9 16 15 28 15c16 0 32 -11 32 -31v0z" />
    <glyph glyph-name="M" unicode="M" horiz-adv-x="774" 
d="M595 674v0c-20 16 -14 58 19 58h79c41 0 41 -64 0 -64h-8v-605h8c41 0 41 -63 0 -63h-79c-41 0 -41 63 0 63h8v550l-176 -176c-2 12 -9 23 -19 32l-19 18zM160 0v0c40 0 40 63 0 63h-9v550l216 -216c15 -14 34 -6 44 6c10 14 10 33 -3 45l-230 227c20 16 14 57 -18 57
h-80c-40 0 -40 -64 0 -64h8v-605h-8c-40 0 -40 -63 0 -63h80z" />
    <glyph glyph-name="quotedblbase" unicode="&#x201e;" horiz-adv-x="833" 
d="M702 -98v98c0 21 16 31 31 31c16 0 32 -10 32 -31v-98c0 -20 -16 -30 -32 -30c-15 0 -31 10 -31 30zM613 -98v98c0 21 16 31 32 31c15 0 31 -10 31 -31v-98c0 -20 -16 -30 -31 -30c-16 0 -32 10 -32 30z" />
    <glyph glyph-name="hyphen" unicode="-" horiz-adv-x="458" 
d="M377 325h-297c-20 0 -30 15 -30 31s10 32 30 32h297c21 0 31 -16 31 -32s-10 -31 -31 -31v0z" />
    <glyph glyph-name="at" unicode="@" horiz-adv-x="1132" 
d="M785 0v0c-14 0 -25 11 -25 25v18l35 41c31 40 3 95 -45 99h-5c30 74 15 163 -45 223c-80 80 -210 80 -290 0s-80 -210 0 -290c71 -71 182 -79 262 -24c19 13 36 31 50 49c26 32 76 -7 50 -39c-21 -25 -41 -46 -69 -65c-104 -69 -246 -57 -337 34c-105 105 -105 275 0 379
c104 105 274 105 379 0c5 -5 10 -11 15 -17v48h71c41 0 41 -64 0 -64h-7v-354h97c12 22 22 45 31 69c1 5 3 10 5 17c40 141 3 295 -103 401c-159 159 -416 159 -574 0c-159 -158 -159 -416 0 -574c75 -76 180 -119 287 -119c17 0 31 -14 31 -32c0 -17 -14 -31 -31 -31
c-130 0 -247 53 -332 137c-183 183 -183 481 0 664s481 183 663 0c122 -122 166 -301 119 -463c-1 -6 -3 -12 -6 -20c-12 -34 -27 -67 -46 -97c-5 -9 -16 -15 -26 -15h-154z" />
    <glyph glyph-name="quotesingle" unicode="'" horiz-adv-x="175" 
d="M16 662v98c0 21 16 31 32 31c15 0 31 -10 31 -31v-98c0 -20 -16 -30 -31 -30c-16 0 -32 10 -32 30z" />
  </font>
</defs>
</svg>
